G75*
G70*
%OFA0B0*%
%FSLAX24Y24*%
%IPPOS*%
%LPD*%
%AMOC8*
5,1,8,0,0,1.08239X$1,22.5*
%
%ADD10OC8,0.0600*%
%ADD11C,0.0100*%
%ADD12C,0.0160*%
%ADD13C,0.0360*%
D10*
X002100Y002100D03*
X003100Y002100D03*
X003100Y003100D03*
X002100Y003100D03*
X004100Y003100D03*
X005100Y003100D03*
X006100Y003100D03*
X006100Y002100D03*
X005100Y002100D03*
X004100Y002100D03*
X007100Y002100D03*
X007100Y003100D03*
X011100Y003100D03*
X011100Y002100D03*
X012100Y002100D03*
X013100Y002100D03*
X014100Y002100D03*
X014100Y003100D03*
X013100Y003100D03*
X012100Y003100D03*
X015100Y003100D03*
X016100Y003100D03*
X016100Y002100D03*
X015100Y002100D03*
X009100Y007600D03*
X009100Y008600D03*
X009100Y009600D03*
X009100Y010600D03*
X009100Y011600D03*
X009100Y012600D03*
X009100Y013600D03*
X009100Y014600D03*
X009100Y015600D03*
X008100Y015600D03*
X008100Y014600D03*
X008100Y013600D03*
X008100Y012600D03*
X008100Y011600D03*
X008100Y010600D03*
X008100Y009600D03*
X008100Y008600D03*
X008100Y007600D03*
D11*
X011100Y004600D01*
X015600Y004600D01*
X016600Y003600D01*
X016600Y002100D01*
X016100Y002100D01*
X015600Y001600D02*
X015600Y003100D01*
X015100Y003100D01*
X014600Y003600D02*
X014600Y002100D01*
X015100Y002100D01*
X015600Y001600D02*
X017100Y001600D01*
X017100Y003600D01*
X015100Y005600D01*
X012100Y005600D01*
X009100Y008600D01*
X008600Y009100D02*
X009100Y009600D01*
X008600Y009100D02*
X007100Y009100D01*
X007100Y004100D01*
X007600Y003600D01*
X013600Y003600D01*
X014100Y003100D01*
X014600Y003600D02*
X014100Y004100D01*
X007600Y004100D01*
X007600Y008100D01*
X008100Y008600D01*
X009100Y007600D02*
X011600Y005100D01*
X014100Y005100D01*
X012100Y002100D02*
X011600Y001600D01*
X003600Y001600D01*
X003100Y002100D01*
X002600Y002600D02*
X002100Y003100D01*
X002600Y002600D02*
X010600Y002600D01*
X011100Y002100D01*
X006100Y003100D02*
X006100Y010600D01*
X007600Y012100D01*
X008600Y012100D01*
X009100Y012600D01*
X008600Y013100D02*
X009100Y013600D01*
X008600Y013100D02*
X007600Y013100D01*
X005100Y010600D01*
X005100Y003100D01*
X004100Y003100D02*
X004100Y010600D01*
X007600Y014100D01*
X008600Y014100D01*
X009100Y014600D01*
D12*
X000600Y016600D02*
X000600Y000600D01*
X018100Y000600D01*
X018100Y016600D01*
X000600Y016600D01*
X000600Y016584D02*
X018100Y016584D01*
X018100Y016426D02*
X000600Y016426D01*
X000600Y016267D02*
X018100Y016267D01*
X018100Y016109D02*
X000600Y016109D01*
X000600Y015950D02*
X007828Y015950D01*
X007918Y016040D02*
X007660Y015782D01*
X007660Y015418D01*
X007918Y015160D01*
X008282Y015160D01*
X008540Y015418D01*
X008540Y015782D01*
X008282Y016040D01*
X007918Y016040D01*
X007669Y015792D02*
X000600Y015792D01*
X000600Y015633D02*
X007660Y015633D01*
X007660Y015475D02*
X000600Y015475D01*
X000600Y015316D02*
X007762Y015316D01*
X007918Y015040D02*
X007660Y014782D01*
X007660Y014418D01*
X007788Y014290D01*
X007521Y014290D01*
X007410Y014179D01*
X003910Y010679D01*
X003910Y003532D01*
X003660Y003282D01*
X003660Y002918D01*
X003788Y002790D01*
X003469Y002790D01*
X003580Y002901D01*
X003580Y003080D01*
X003120Y003080D01*
X003120Y003120D01*
X003080Y003120D01*
X003080Y003580D01*
X002901Y003580D01*
X002620Y003299D01*
X002620Y003120D01*
X003080Y003120D01*
X003080Y003080D01*
X002620Y003080D01*
X002620Y002901D01*
X002731Y002790D01*
X002679Y002790D01*
X002540Y002929D01*
X002540Y003282D01*
X002282Y003540D01*
X001918Y003540D01*
X001660Y003282D01*
X001660Y002918D01*
X001918Y002660D01*
X002271Y002660D01*
X002521Y002410D01*
X002731Y002410D01*
X002620Y002299D01*
X002620Y002120D01*
X003080Y002120D01*
X003080Y002080D01*
X003120Y002080D01*
X003120Y002120D01*
X003580Y002120D01*
X003580Y002299D01*
X003469Y002410D01*
X003788Y002410D01*
X003660Y002282D01*
X003660Y001918D01*
X003918Y001660D01*
X004282Y001660D01*
X004540Y001918D01*
X004540Y002282D01*
X004412Y002410D01*
X004788Y002410D01*
X004660Y002282D01*
X004660Y001918D01*
X004918Y001660D01*
X005282Y001660D01*
X005540Y001918D01*
X005540Y002282D01*
X005412Y002410D01*
X005788Y002410D01*
X005660Y002282D01*
X005660Y001918D01*
X005918Y001660D01*
X006282Y001660D01*
X006540Y001918D01*
X006540Y002282D01*
X006412Y002410D01*
X006788Y002410D01*
X006660Y002282D01*
X006660Y001918D01*
X006918Y001660D01*
X007282Y001660D01*
X007540Y001918D01*
X007540Y002282D01*
X007412Y002410D01*
X010521Y002410D01*
X010660Y002271D01*
X010660Y001918D01*
X010918Y001660D01*
X011282Y001660D01*
X011540Y001918D01*
X011540Y002282D01*
X011282Y002540D01*
X010929Y002540D01*
X010790Y002679D01*
X010679Y002790D01*
X007412Y002790D01*
X007540Y002918D01*
X007540Y003282D01*
X007282Y003540D01*
X006918Y003540D01*
X006660Y003282D01*
X006660Y002918D01*
X006788Y002790D01*
X006412Y002790D01*
X006540Y002918D01*
X006540Y003282D01*
X006290Y003532D01*
X006290Y010521D01*
X007679Y011910D01*
X007788Y011910D01*
X007660Y011782D01*
X007660Y011418D01*
X007918Y011160D01*
X008282Y011160D01*
X008540Y011418D01*
X008540Y011782D01*
X008412Y011910D01*
X008679Y011910D01*
X008929Y012160D01*
X009282Y012160D01*
X009540Y012418D01*
X009540Y012782D01*
X009282Y013040D01*
X008918Y013040D01*
X008660Y012782D01*
X008660Y012429D01*
X008521Y012290D01*
X008412Y012290D01*
X008540Y012418D01*
X008540Y012782D01*
X008412Y012910D01*
X008679Y012910D01*
X008929Y013160D01*
X009282Y013160D01*
X009540Y013418D01*
X009540Y013782D01*
X009282Y014040D01*
X008918Y014040D01*
X008660Y013782D01*
X008660Y013429D01*
X008521Y013290D01*
X008412Y013290D01*
X008540Y013418D01*
X008540Y013782D01*
X008412Y013910D01*
X008679Y013910D01*
X008929Y014160D01*
X009282Y014160D01*
X009540Y014418D01*
X009540Y014782D01*
X009282Y015040D01*
X008918Y015040D01*
X008660Y014782D01*
X008660Y014429D01*
X008521Y014290D01*
X008412Y014290D01*
X008540Y014418D01*
X008540Y014782D01*
X008282Y015040D01*
X007918Y015040D01*
X007877Y014999D02*
X000600Y014999D01*
X000600Y014841D02*
X007718Y014841D01*
X007660Y014682D02*
X000600Y014682D01*
X000600Y014524D02*
X007660Y014524D01*
X007713Y014365D02*
X000600Y014365D01*
X000600Y014207D02*
X007438Y014207D01*
X007279Y014048D02*
X000600Y014048D01*
X000600Y013890D02*
X007121Y013890D01*
X006962Y013731D02*
X000600Y013731D01*
X000600Y013573D02*
X006804Y013573D01*
X006645Y013414D02*
X000600Y013414D01*
X000600Y013256D02*
X006487Y013256D01*
X006328Y013097D02*
X000600Y013097D01*
X000600Y012939D02*
X006170Y012939D01*
X006011Y012780D02*
X000600Y012780D01*
X000600Y012622D02*
X005853Y012622D01*
X005694Y012463D02*
X000600Y012463D01*
X000600Y012305D02*
X005536Y012305D01*
X005377Y012146D02*
X000600Y012146D01*
X000600Y011988D02*
X005219Y011988D01*
X005060Y011829D02*
X000600Y011829D01*
X000600Y011671D02*
X004902Y011671D01*
X004743Y011512D02*
X000600Y011512D01*
X000600Y011354D02*
X004585Y011354D01*
X004426Y011195D02*
X000600Y011195D01*
X000600Y011037D02*
X004268Y011037D01*
X004109Y010878D02*
X000600Y010878D01*
X000600Y010720D02*
X003951Y010720D01*
X003910Y010561D02*
X000600Y010561D01*
X000600Y010403D02*
X003910Y010403D01*
X003910Y010244D02*
X000600Y010244D01*
X000600Y010086D02*
X003910Y010086D01*
X003910Y009927D02*
X000600Y009927D01*
X000600Y009769D02*
X003910Y009769D01*
X003910Y009610D02*
X000600Y009610D01*
X000600Y009452D02*
X003910Y009452D01*
X003910Y009293D02*
X000600Y009293D01*
X000600Y009135D02*
X003910Y009135D01*
X003910Y008976D02*
X000600Y008976D01*
X000600Y008818D02*
X003910Y008818D01*
X003910Y008659D02*
X000600Y008659D01*
X000600Y008501D02*
X003910Y008501D01*
X003910Y008342D02*
X000600Y008342D01*
X000600Y008184D02*
X003910Y008184D01*
X003910Y008025D02*
X000600Y008025D01*
X000600Y007867D02*
X003910Y007867D01*
X003910Y007708D02*
X000600Y007708D01*
X000600Y007550D02*
X003910Y007550D01*
X003910Y007391D02*
X000600Y007391D01*
X000600Y007233D02*
X003910Y007233D01*
X003910Y007074D02*
X000600Y007074D01*
X000600Y006916D02*
X003910Y006916D01*
X003910Y006757D02*
X000600Y006757D01*
X000600Y006599D02*
X003910Y006599D01*
X003910Y006440D02*
X000600Y006440D01*
X000600Y006282D02*
X003910Y006282D01*
X003910Y006123D02*
X000600Y006123D01*
X000600Y005965D02*
X003910Y005965D01*
X003910Y005806D02*
X000600Y005806D01*
X000600Y005648D02*
X003910Y005648D01*
X003910Y005489D02*
X000600Y005489D01*
X000600Y005331D02*
X003910Y005331D01*
X003910Y005172D02*
X000600Y005172D01*
X000600Y005014D02*
X003910Y005014D01*
X003910Y004855D02*
X000600Y004855D01*
X000600Y004697D02*
X003910Y004697D01*
X003910Y004538D02*
X000600Y004538D01*
X000600Y004380D02*
X003910Y004380D01*
X003910Y004221D02*
X000600Y004221D01*
X000600Y004063D02*
X003910Y004063D01*
X003910Y003904D02*
X000600Y003904D01*
X000600Y003746D02*
X003910Y003746D01*
X003910Y003587D02*
X000600Y003587D01*
X000600Y003429D02*
X001806Y003429D01*
X001660Y003270D02*
X000600Y003270D01*
X000600Y003112D02*
X001660Y003112D01*
X001660Y002953D02*
X000600Y002953D01*
X000600Y002795D02*
X001783Y002795D01*
X001918Y002540D02*
X001660Y002282D01*
X001660Y001918D01*
X001918Y001660D01*
X002282Y001660D01*
X002540Y001918D01*
X002540Y002282D01*
X002282Y002540D01*
X001918Y002540D01*
X001855Y002478D02*
X000600Y002478D01*
X000600Y002636D02*
X002295Y002636D01*
X002345Y002478D02*
X002454Y002478D01*
X002503Y002319D02*
X002640Y002319D01*
X002620Y002161D02*
X002540Y002161D01*
X002620Y002080D02*
X002620Y001901D01*
X002901Y001620D01*
X003080Y001620D01*
X003080Y002080D01*
X002620Y002080D01*
X002620Y002002D02*
X002540Y002002D01*
X002466Y001844D02*
X002678Y001844D01*
X002836Y001685D02*
X002307Y001685D01*
X001893Y001685D02*
X000600Y001685D01*
X000600Y001527D02*
X015410Y001527D01*
X015410Y001521D02*
X015521Y001410D01*
X017179Y001410D01*
X017290Y001521D01*
X017290Y003679D01*
X017179Y003790D01*
X017179Y003790D01*
X015179Y005790D01*
X012179Y005790D01*
X009540Y008429D01*
X009540Y008782D01*
X009282Y009040D01*
X008918Y009040D01*
X008660Y008782D01*
X008660Y008418D01*
X008918Y008160D01*
X009271Y008160D01*
X012021Y005410D01*
X014012Y005410D01*
X013919Y005371D01*
X013837Y005290D01*
X011679Y005290D01*
X009540Y007429D01*
X009540Y007782D01*
X009282Y008040D01*
X008918Y008040D01*
X008660Y007782D01*
X008660Y007418D01*
X008918Y007160D01*
X009271Y007160D01*
X011410Y005021D01*
X011521Y004910D01*
X013837Y004910D01*
X013919Y004829D01*
X014012Y004790D01*
X011179Y004790D01*
X008540Y007429D01*
X008540Y007782D01*
X008282Y008040D01*
X007918Y008040D01*
X007790Y007912D01*
X007790Y008021D01*
X007929Y008160D01*
X008282Y008160D01*
X008540Y008418D01*
X008540Y008782D01*
X008412Y008910D01*
X008679Y008910D01*
X008929Y009160D01*
X009282Y009160D01*
X009540Y009418D01*
X009540Y009782D01*
X009282Y010040D01*
X008918Y010040D01*
X008660Y009782D01*
X008660Y009429D01*
X008521Y009290D01*
X008412Y009290D01*
X008540Y009418D01*
X008540Y009782D01*
X008282Y010040D01*
X007918Y010040D01*
X007660Y009782D01*
X007660Y009418D01*
X007788Y009290D01*
X007021Y009290D01*
X006910Y009179D01*
X006910Y004021D01*
X007021Y003910D01*
X007521Y003410D01*
X010788Y003410D01*
X010660Y003282D01*
X010660Y002918D01*
X010918Y002660D01*
X011282Y002660D01*
X011540Y002918D01*
X011540Y003282D01*
X011412Y003410D01*
X011731Y003410D01*
X011620Y003299D01*
X011620Y003120D01*
X012080Y003120D01*
X012080Y003080D01*
X012120Y003080D01*
X012120Y003120D01*
X012580Y003120D01*
X012580Y003299D01*
X012469Y003410D01*
X012788Y003410D01*
X012660Y003282D01*
X012660Y002918D01*
X012918Y002660D01*
X013282Y002660D01*
X013540Y002918D01*
X013540Y003282D01*
X013412Y003410D01*
X013521Y003410D01*
X013660Y003271D01*
X013660Y002918D01*
X013918Y002660D01*
X014282Y002660D01*
X014410Y002788D01*
X014410Y002412D01*
X014282Y002540D01*
X013918Y002540D01*
X013660Y002282D01*
X013660Y001918D01*
X013918Y001660D01*
X014282Y001660D01*
X014532Y001910D01*
X014668Y001910D01*
X014918Y001660D01*
X015282Y001660D01*
X015410Y001788D01*
X015410Y001521D01*
X015410Y001685D02*
X015307Y001685D01*
X014893Y001685D02*
X014307Y001685D01*
X014466Y001844D02*
X014734Y001844D01*
X014410Y002478D02*
X014345Y002478D01*
X014410Y002636D02*
X012315Y002636D01*
X012299Y002620D02*
X012580Y002901D01*
X012580Y003080D01*
X012120Y003080D01*
X012120Y002620D01*
X012299Y002620D01*
X012299Y002580D02*
X012120Y002580D01*
X012120Y002120D01*
X012580Y002120D01*
X012580Y002299D01*
X012299Y002580D01*
X012401Y002478D02*
X012855Y002478D01*
X012918Y002540D02*
X012660Y002282D01*
X012660Y001918D01*
X012918Y001660D01*
X013282Y001660D01*
X013540Y001918D01*
X013540Y002282D01*
X013282Y002540D01*
X012918Y002540D01*
X012697Y002319D02*
X012560Y002319D01*
X012580Y002161D02*
X012660Y002161D01*
X012580Y002080D02*
X012580Y001901D01*
X012299Y001620D01*
X012120Y001620D01*
X012120Y002080D01*
X012120Y002120D01*
X012080Y002120D01*
X012080Y002580D01*
X011901Y002580D01*
X011620Y002299D01*
X011620Y002120D01*
X012080Y002120D01*
X012080Y002080D01*
X012120Y002080D01*
X012580Y002080D01*
X012580Y002002D02*
X012660Y002002D01*
X012734Y001844D02*
X012522Y001844D01*
X012364Y001685D02*
X012893Y001685D01*
X013307Y001685D02*
X013893Y001685D01*
X013734Y001844D02*
X013466Y001844D01*
X013540Y002002D02*
X013660Y002002D01*
X013660Y002161D02*
X013540Y002161D01*
X013503Y002319D02*
X013697Y002319D01*
X013855Y002478D02*
X013345Y002478D01*
X013417Y002795D02*
X013783Y002795D01*
X013660Y002953D02*
X013540Y002953D01*
X013540Y003112D02*
X013660Y003112D01*
X013660Y003270D02*
X013540Y003270D01*
X012660Y003270D02*
X012580Y003270D01*
X012660Y003112D02*
X012120Y003112D01*
X012080Y003112D02*
X011540Y003112D01*
X011620Y003080D02*
X011620Y002901D01*
X011901Y002620D01*
X012080Y002620D01*
X012080Y003080D01*
X011620Y003080D01*
X011620Y002953D02*
X011540Y002953D01*
X011417Y002795D02*
X011727Y002795D01*
X011885Y002636D02*
X010833Y002636D01*
X010783Y002795D02*
X007417Y002795D01*
X007540Y002953D02*
X010660Y002953D01*
X010660Y003112D02*
X007540Y003112D01*
X007540Y003270D02*
X010660Y003270D01*
X011540Y003270D02*
X011620Y003270D01*
X012080Y002953D02*
X012120Y002953D01*
X012120Y002795D02*
X012080Y002795D01*
X012080Y002636D02*
X012120Y002636D01*
X012120Y002478D02*
X012080Y002478D01*
X012080Y002319D02*
X012120Y002319D01*
X012120Y002161D02*
X012080Y002161D01*
X012080Y002080D02*
X011620Y002080D01*
X011620Y001901D01*
X011901Y001620D01*
X012080Y001620D01*
X012080Y002080D01*
X012080Y002002D02*
X012120Y002002D01*
X012120Y001844D02*
X012080Y001844D01*
X012080Y001685D02*
X012120Y001685D01*
X011836Y001685D02*
X011307Y001685D01*
X011466Y001844D02*
X011678Y001844D01*
X011620Y002002D02*
X011540Y002002D01*
X011540Y002161D02*
X011620Y002161D01*
X011640Y002319D02*
X011503Y002319D01*
X011345Y002478D02*
X011799Y002478D01*
X012473Y002795D02*
X012783Y002795D01*
X012660Y002953D02*
X012580Y002953D01*
X010893Y001685D02*
X007307Y001685D01*
X007466Y001844D02*
X010734Y001844D01*
X010660Y002002D02*
X007540Y002002D01*
X007540Y002161D02*
X010660Y002161D01*
X010612Y002319D02*
X007503Y002319D01*
X006697Y002319D02*
X006503Y002319D01*
X006540Y002161D02*
X006660Y002161D01*
X006660Y002002D02*
X006540Y002002D01*
X006466Y001844D02*
X006734Y001844D01*
X006893Y001685D02*
X006307Y001685D01*
X005893Y001685D02*
X005307Y001685D01*
X005466Y001844D02*
X005734Y001844D01*
X005660Y002002D02*
X005540Y002002D01*
X005540Y002161D02*
X005660Y002161D01*
X005697Y002319D02*
X005503Y002319D01*
X004697Y002319D02*
X004503Y002319D01*
X004540Y002161D02*
X004660Y002161D01*
X004660Y002002D02*
X004540Y002002D01*
X004466Y001844D02*
X004734Y001844D01*
X004893Y001685D02*
X004307Y001685D01*
X003893Y001685D02*
X003364Y001685D01*
X003299Y001620D02*
X003580Y001901D01*
X003580Y002080D01*
X003120Y002080D01*
X003120Y001620D01*
X003299Y001620D01*
X003120Y001685D02*
X003080Y001685D01*
X003080Y001844D02*
X003120Y001844D01*
X003120Y002002D02*
X003080Y002002D01*
X003522Y001844D02*
X003734Y001844D01*
X003660Y002002D02*
X003580Y002002D01*
X003580Y002161D02*
X003660Y002161D01*
X003697Y002319D02*
X003560Y002319D01*
X003473Y002795D02*
X003783Y002795D01*
X003660Y002953D02*
X003580Y002953D01*
X003580Y003120D02*
X003580Y003299D01*
X003299Y003580D01*
X003120Y003580D01*
X003120Y003120D01*
X003580Y003120D01*
X003660Y003112D02*
X003120Y003112D01*
X003080Y003112D02*
X002540Y003112D01*
X002540Y003270D02*
X002620Y003270D01*
X002750Y003429D02*
X002394Y003429D01*
X002540Y002953D02*
X002620Y002953D01*
X002674Y002795D02*
X002727Y002795D01*
X003080Y003270D02*
X003120Y003270D01*
X003120Y003429D02*
X003080Y003429D01*
X003450Y003429D02*
X003806Y003429D01*
X003660Y003270D02*
X003580Y003270D01*
X001697Y002319D02*
X000600Y002319D01*
X000600Y002161D02*
X001660Y002161D01*
X001660Y002002D02*
X000600Y002002D01*
X000600Y001844D02*
X001734Y001844D01*
X000600Y001368D02*
X018100Y001368D01*
X018100Y001210D02*
X000600Y001210D01*
X000600Y001051D02*
X018100Y001051D01*
X018100Y000893D02*
X000600Y000893D01*
X000600Y000734D02*
X018100Y000734D01*
X018100Y001527D02*
X017290Y001527D01*
X017290Y001685D02*
X018100Y001685D01*
X018100Y001844D02*
X017290Y001844D01*
X017290Y002002D02*
X018100Y002002D01*
X018100Y002161D02*
X017290Y002161D01*
X017290Y002319D02*
X018100Y002319D01*
X018100Y002478D02*
X017290Y002478D01*
X017290Y002636D02*
X018100Y002636D01*
X018100Y002795D02*
X017290Y002795D01*
X017290Y002953D02*
X018100Y002953D01*
X018100Y003112D02*
X017290Y003112D01*
X017290Y003270D02*
X018100Y003270D01*
X018100Y003429D02*
X017290Y003429D01*
X017290Y003587D02*
X018100Y003587D01*
X018100Y003746D02*
X017223Y003746D01*
X017065Y003904D02*
X018100Y003904D01*
X018100Y004063D02*
X016906Y004063D01*
X016748Y004221D02*
X018100Y004221D01*
X018100Y004380D02*
X016589Y004380D01*
X016431Y004538D02*
X018100Y004538D01*
X018100Y004697D02*
X016272Y004697D01*
X016114Y004855D02*
X018100Y004855D01*
X018100Y005014D02*
X015955Y005014D01*
X015797Y005172D02*
X018100Y005172D01*
X018100Y005331D02*
X015638Y005331D01*
X015480Y005489D02*
X018100Y005489D01*
X018100Y005648D02*
X015321Y005648D01*
X013878Y005331D02*
X011638Y005331D01*
X011480Y005489D02*
X011942Y005489D01*
X011784Y005648D02*
X011321Y005648D01*
X011163Y005806D02*
X011625Y005806D01*
X011467Y005965D02*
X011004Y005965D01*
X010846Y006123D02*
X011308Y006123D01*
X011150Y006282D02*
X010687Y006282D01*
X010529Y006440D02*
X010991Y006440D01*
X010833Y006599D02*
X010370Y006599D01*
X010212Y006757D02*
X010674Y006757D01*
X010516Y006916D02*
X010053Y006916D01*
X009895Y007074D02*
X010357Y007074D01*
X010199Y007233D02*
X009736Y007233D01*
X009578Y007391D02*
X010040Y007391D01*
X009882Y007550D02*
X009540Y007550D01*
X009540Y007708D02*
X009723Y007708D01*
X009565Y007867D02*
X009456Y007867D01*
X009406Y008025D02*
X009297Y008025D01*
X009627Y008342D02*
X018100Y008342D01*
X018100Y008184D02*
X009785Y008184D01*
X009944Y008025D02*
X018100Y008025D01*
X018100Y007867D02*
X010102Y007867D01*
X010261Y007708D02*
X018100Y007708D01*
X018100Y007550D02*
X010419Y007550D01*
X010578Y007391D02*
X018100Y007391D01*
X018100Y007233D02*
X010736Y007233D01*
X010895Y007074D02*
X018100Y007074D01*
X018100Y006916D02*
X011053Y006916D01*
X011212Y006757D02*
X018100Y006757D01*
X018100Y006599D02*
X011370Y006599D01*
X011529Y006440D02*
X018100Y006440D01*
X018100Y006282D02*
X011687Y006282D01*
X011846Y006123D02*
X018100Y006123D01*
X018100Y005965D02*
X012004Y005965D01*
X012163Y005806D02*
X018100Y005806D01*
X018100Y008501D02*
X009540Y008501D01*
X009540Y008659D02*
X018100Y008659D01*
X018100Y008818D02*
X009505Y008818D01*
X009346Y008976D02*
X018100Y008976D01*
X018100Y009135D02*
X008903Y009135D01*
X008854Y008976D02*
X008745Y008976D01*
X008695Y008818D02*
X008505Y008818D01*
X008540Y008659D02*
X008660Y008659D01*
X008660Y008501D02*
X008540Y008501D01*
X008464Y008342D02*
X008736Y008342D01*
X008894Y008184D02*
X008306Y008184D01*
X008297Y008025D02*
X008903Y008025D01*
X008744Y007867D02*
X008456Y007867D01*
X008540Y007708D02*
X008660Y007708D01*
X008660Y007550D02*
X008540Y007550D01*
X008578Y007391D02*
X008687Y007391D01*
X008736Y007233D02*
X008845Y007233D01*
X008895Y007074D02*
X009357Y007074D01*
X009516Y006916D02*
X009053Y006916D01*
X009212Y006757D02*
X009674Y006757D01*
X009833Y006599D02*
X009370Y006599D01*
X009529Y006440D02*
X009991Y006440D01*
X010150Y006282D02*
X009687Y006282D01*
X009846Y006123D02*
X010308Y006123D01*
X010467Y005965D02*
X010004Y005965D01*
X010163Y005806D02*
X010625Y005806D01*
X010784Y005648D02*
X010321Y005648D01*
X010480Y005489D02*
X010942Y005489D01*
X011101Y005331D02*
X010638Y005331D01*
X010797Y005172D02*
X011259Y005172D01*
X011418Y005014D02*
X010955Y005014D01*
X011114Y004855D02*
X013892Y004855D01*
X018100Y009293D02*
X009415Y009293D01*
X009540Y009452D02*
X018100Y009452D01*
X018100Y009610D02*
X009540Y009610D01*
X009540Y009769D02*
X018100Y009769D01*
X018100Y009927D02*
X009395Y009927D01*
X009282Y010160D02*
X008918Y010160D01*
X008660Y010418D01*
X008660Y010782D01*
X008918Y011040D01*
X009282Y011040D01*
X009540Y010782D01*
X009540Y010418D01*
X009282Y010160D01*
X009366Y010244D02*
X018100Y010244D01*
X018100Y010086D02*
X006290Y010086D01*
X006290Y010244D02*
X007834Y010244D01*
X007918Y010160D02*
X008282Y010160D01*
X008540Y010418D01*
X008540Y010782D01*
X008282Y011040D01*
X007918Y011040D01*
X007660Y010782D01*
X007660Y010418D01*
X007918Y010160D01*
X007675Y010403D02*
X006290Y010403D01*
X006330Y010561D02*
X007660Y010561D01*
X007660Y010720D02*
X006488Y010720D01*
X006647Y010878D02*
X007756Y010878D01*
X007914Y011037D02*
X006805Y011037D01*
X006964Y011195D02*
X007883Y011195D01*
X007724Y011354D02*
X007122Y011354D01*
X007281Y011512D02*
X007660Y011512D01*
X007660Y011671D02*
X007439Y011671D01*
X007598Y011829D02*
X007707Y011829D01*
X008317Y011195D02*
X008883Y011195D01*
X008918Y011160D02*
X008660Y011418D01*
X008660Y011782D01*
X008918Y012040D01*
X009282Y012040D01*
X009540Y011782D01*
X009540Y011418D01*
X009282Y011160D01*
X008918Y011160D01*
X008914Y011037D02*
X008286Y011037D01*
X008444Y010878D02*
X008756Y010878D01*
X008660Y010720D02*
X008540Y010720D01*
X008540Y010561D02*
X008660Y010561D01*
X008675Y010403D02*
X008525Y010403D01*
X008366Y010244D02*
X008834Y010244D01*
X008805Y009927D02*
X008395Y009927D01*
X008540Y009769D02*
X008660Y009769D01*
X008660Y009610D02*
X008540Y009610D01*
X008540Y009452D02*
X008660Y009452D01*
X008524Y009293D02*
X008415Y009293D01*
X007805Y009927D02*
X006290Y009927D01*
X006290Y009769D02*
X007660Y009769D01*
X007660Y009610D02*
X006290Y009610D01*
X006290Y009452D02*
X007660Y009452D01*
X007785Y009293D02*
X006290Y009293D01*
X006290Y009135D02*
X006910Y009135D01*
X006910Y008976D02*
X006290Y008976D01*
X006290Y008818D02*
X006910Y008818D01*
X006910Y008659D02*
X006290Y008659D01*
X006290Y008501D02*
X006910Y008501D01*
X006910Y008342D02*
X006290Y008342D01*
X006290Y008184D02*
X006910Y008184D01*
X006910Y008025D02*
X006290Y008025D01*
X006290Y007867D02*
X006910Y007867D01*
X006910Y007708D02*
X006290Y007708D01*
X006290Y007550D02*
X006910Y007550D01*
X006910Y007391D02*
X006290Y007391D01*
X006290Y007233D02*
X006910Y007233D01*
X006910Y007074D02*
X006290Y007074D01*
X006290Y006916D02*
X006910Y006916D01*
X006910Y006757D02*
X006290Y006757D01*
X006290Y006599D02*
X006910Y006599D01*
X006910Y006440D02*
X006290Y006440D01*
X006290Y006282D02*
X006910Y006282D01*
X006910Y006123D02*
X006290Y006123D01*
X006290Y005965D02*
X006910Y005965D01*
X006910Y005806D02*
X006290Y005806D01*
X006290Y005648D02*
X006910Y005648D01*
X006910Y005489D02*
X006290Y005489D01*
X006290Y005331D02*
X006910Y005331D01*
X006910Y005172D02*
X006290Y005172D01*
X006290Y005014D02*
X006910Y005014D01*
X006910Y004855D02*
X006290Y004855D01*
X006290Y004697D02*
X006910Y004697D01*
X006910Y004538D02*
X006290Y004538D01*
X006290Y004380D02*
X006910Y004380D01*
X006910Y004221D02*
X006290Y004221D01*
X006290Y004063D02*
X006910Y004063D01*
X007027Y003904D02*
X006290Y003904D01*
X006290Y003746D02*
X007186Y003746D01*
X007344Y003587D02*
X006290Y003587D01*
X006394Y003429D02*
X006806Y003429D01*
X006660Y003270D02*
X006540Y003270D01*
X006540Y003112D02*
X006660Y003112D01*
X006660Y002953D02*
X006540Y002953D01*
X006417Y002795D02*
X006783Y002795D01*
X007394Y003429D02*
X007503Y003429D01*
X007794Y008025D02*
X007903Y008025D01*
X009525Y010403D02*
X018100Y010403D01*
X018100Y010561D02*
X009540Y010561D01*
X009540Y010720D02*
X018100Y010720D01*
X018100Y010878D02*
X009444Y010878D01*
X009286Y011037D02*
X018100Y011037D01*
X018100Y011195D02*
X009317Y011195D01*
X009476Y011354D02*
X018100Y011354D01*
X018100Y011512D02*
X009540Y011512D01*
X009540Y011671D02*
X018100Y011671D01*
X018100Y011829D02*
X009493Y011829D01*
X009335Y011988D02*
X018100Y011988D01*
X018100Y012146D02*
X008915Y012146D01*
X008865Y011988D02*
X008756Y011988D01*
X008707Y011829D02*
X008493Y011829D01*
X008540Y011671D02*
X008660Y011671D01*
X008660Y011512D02*
X008540Y011512D01*
X008476Y011354D02*
X008724Y011354D01*
X008536Y012305D02*
X008427Y012305D01*
X008540Y012463D02*
X008660Y012463D01*
X008660Y012622D02*
X008540Y012622D01*
X008540Y012780D02*
X008660Y012780D01*
X008707Y012939D02*
X008816Y012939D01*
X008866Y013097D02*
X018100Y013097D01*
X018100Y012939D02*
X009384Y012939D01*
X009540Y012780D02*
X018100Y012780D01*
X018100Y012622D02*
X009540Y012622D01*
X009540Y012463D02*
X018100Y012463D01*
X018100Y012305D02*
X009427Y012305D01*
X009378Y013256D02*
X018100Y013256D01*
X018100Y013414D02*
X009536Y013414D01*
X009540Y013573D02*
X018100Y013573D01*
X018100Y013731D02*
X009540Y013731D01*
X009433Y013890D02*
X018100Y013890D01*
X018100Y014048D02*
X008817Y014048D01*
X008767Y013890D02*
X008433Y013890D01*
X008540Y013731D02*
X008660Y013731D01*
X008660Y013573D02*
X008540Y013573D01*
X008536Y013414D02*
X008645Y013414D01*
X009329Y014207D02*
X018100Y014207D01*
X018100Y014365D02*
X009487Y014365D01*
X009540Y014524D02*
X018100Y014524D01*
X018100Y014682D02*
X009540Y014682D01*
X009482Y014841D02*
X018100Y014841D01*
X018100Y014999D02*
X009323Y014999D01*
X009299Y015120D02*
X009580Y015401D01*
X009580Y015580D01*
X009120Y015580D01*
X009120Y015620D01*
X009080Y015620D01*
X009080Y016080D01*
X008901Y016080D01*
X008620Y015799D01*
X008620Y015620D01*
X009080Y015620D01*
X009080Y015580D01*
X008620Y015580D01*
X008620Y015401D01*
X008901Y015120D01*
X009080Y015120D01*
X009080Y015580D01*
X009120Y015580D01*
X009120Y015120D01*
X009299Y015120D01*
X009336Y015158D02*
X018100Y015158D01*
X018100Y015316D02*
X009495Y015316D01*
X009580Y015475D02*
X018100Y015475D01*
X018100Y015633D02*
X009580Y015633D01*
X009580Y015620D02*
X009580Y015799D01*
X009299Y016080D01*
X009120Y016080D01*
X009120Y015620D01*
X009580Y015620D01*
X009580Y015792D02*
X018100Y015792D01*
X018100Y015950D02*
X009429Y015950D01*
X009120Y015950D02*
X009080Y015950D01*
X009080Y015792D02*
X009120Y015792D01*
X009120Y015633D02*
X009080Y015633D01*
X009080Y015475D02*
X009120Y015475D01*
X009120Y015316D02*
X009080Y015316D01*
X009080Y015158D02*
X009120Y015158D01*
X008864Y015158D02*
X000600Y015158D01*
X008323Y014999D02*
X008877Y014999D01*
X008718Y014841D02*
X008482Y014841D01*
X008540Y014682D02*
X008660Y014682D01*
X008660Y014524D02*
X008540Y014524D01*
X008487Y014365D02*
X008596Y014365D01*
X008705Y015316D02*
X008438Y015316D01*
X008540Y015475D02*
X008620Y015475D01*
X008620Y015633D02*
X008540Y015633D01*
X008531Y015792D02*
X008620Y015792D01*
X008771Y015950D02*
X008372Y015950D01*
D13*
X014100Y005100D03*
M02*
