%
M48
M72
T01C0.0240
T02C0.0400
%
T01
X14100Y5100
T02
X2100Y2100
X3100Y2100
X3100Y3100
X2100Y3100
X4100Y3100
X5100Y3100
X6100Y3100
X6100Y2100
X5100Y2100
X4100Y2100
X7100Y2100
X7100Y3100
X11100Y3100
X11100Y2100
X12100Y2100
X13100Y2100
X14100Y2100
X14100Y3100
X13100Y3100
X12100Y3100
X15100Y3100
X16100Y3100
X16100Y2100
X15100Y2100
X9100Y7600
X9100Y8600
X9100Y9600
X9100Y10600
X9100Y11600
X9100Y12600
X9100Y13600
X9100Y14600
X9100Y15600
X8100Y15600
X8100Y14600
X8100Y13600
X8100Y12600
X8100Y11600
X8100Y10600
X8100Y9600
X8100Y8600
X8100Y7600
M30
