G75*
G70*
%OFA0B0*%
%FSLAX24Y24*%
%IPPOS*%
%LPD*%
%AMOC8*
5,1,8,0,0,1.08239X$1,22.5*
%
%ADD10OC8,0.0600*%
%ADD11C,0.0100*%
%ADD12C,0.0160*%
%ADD13C,0.0360*%
D10*
X002100Y002100D03*
X003100Y002100D03*
X003100Y003100D03*
X002100Y003100D03*
X004100Y003100D03*
X005100Y003100D03*
X006100Y003100D03*
X006100Y002100D03*
X005100Y002100D03*
X004100Y002100D03*
X007100Y002100D03*
X007100Y003100D03*
X011100Y003100D03*
X011100Y002100D03*
X012100Y002100D03*
X013100Y002100D03*
X014100Y002100D03*
X014100Y003100D03*
X013100Y003100D03*
X012100Y003100D03*
X015100Y003100D03*
X016100Y003100D03*
X016100Y002100D03*
X015100Y002100D03*
X009100Y007600D03*
X009100Y008600D03*
X009100Y009600D03*
X009100Y010600D03*
X009100Y011600D03*
X009100Y012600D03*
X009100Y013600D03*
X009100Y014600D03*
X009100Y015600D03*
X008100Y015600D03*
X008100Y014600D03*
X008100Y013600D03*
X008100Y012600D03*
X008100Y011600D03*
X008100Y010600D03*
X008100Y009600D03*
X008100Y008600D03*
X008100Y007600D03*
D11*
X008600Y009100D02*
X008100Y009600D01*
X008600Y009100D02*
X008600Y001600D01*
X013600Y001600D01*
X014100Y002100D01*
X013100Y002100D02*
X012600Y002600D01*
X012600Y007100D01*
X009600Y010100D01*
X008600Y010100D01*
X008100Y010600D01*
X008600Y011100D02*
X007600Y011100D01*
X007600Y003600D01*
X007100Y003100D01*
X006600Y002600D02*
X006600Y010600D01*
X007600Y011600D01*
X008100Y011600D01*
X008600Y011100D02*
X009100Y011600D01*
X009100Y010600D02*
X009600Y010600D01*
X013100Y007100D01*
X013100Y003100D01*
X012100Y003100D02*
X012100Y002100D01*
X011100Y002100D02*
X011100Y003100D01*
X014100Y005100D02*
X016100Y003100D01*
X007100Y002100D02*
X006600Y002600D01*
X006100Y002100D02*
X005600Y002600D01*
X005600Y010100D01*
X008100Y012600D01*
X008100Y013600D02*
X004600Y010100D01*
X004600Y002600D01*
X005100Y002100D01*
X004100Y002100D02*
X003600Y002600D01*
X003600Y010100D01*
X008100Y014600D01*
X008600Y015100D02*
X003100Y015100D01*
X003100Y003100D01*
X003100Y002100D01*
X002100Y002100D02*
X002100Y003100D01*
X002100Y015600D01*
X008100Y015600D01*
X008600Y015100D02*
X009100Y015600D01*
D12*
X000600Y016600D02*
X000600Y000600D01*
X018100Y000600D01*
X018100Y016600D01*
X000600Y016600D01*
X000600Y016584D02*
X018100Y016584D01*
X018100Y016426D02*
X000600Y016426D01*
X000600Y016267D02*
X018100Y016267D01*
X018100Y016109D02*
X000600Y016109D01*
X000600Y015950D02*
X007828Y015950D01*
X007918Y016040D02*
X007668Y015790D01*
X002021Y015790D01*
X001910Y015679D01*
X001910Y003532D01*
X001660Y003282D01*
X001660Y002918D01*
X001910Y002668D01*
X001910Y002532D01*
X001660Y002282D01*
X001660Y001918D01*
X001918Y001660D01*
X002282Y001660D01*
X002540Y001918D01*
X002540Y002282D01*
X002290Y002532D01*
X002290Y002668D01*
X002540Y002918D01*
X002540Y003282D01*
X002290Y003532D01*
X002290Y015410D01*
X007668Y015410D01*
X007918Y015160D01*
X008282Y015160D01*
X008540Y015418D01*
X008540Y015782D01*
X008282Y016040D01*
X007918Y016040D01*
X007669Y015792D02*
X000600Y015792D01*
X000600Y015633D02*
X001910Y015633D01*
X001910Y015475D02*
X000600Y015475D01*
X000600Y015316D02*
X001910Y015316D01*
X001910Y015158D02*
X000600Y015158D01*
X000600Y014999D02*
X001910Y014999D01*
X001910Y014841D02*
X000600Y014841D01*
X000600Y014682D02*
X001910Y014682D01*
X001910Y014524D02*
X000600Y014524D01*
X000600Y014365D02*
X001910Y014365D01*
X001910Y014207D02*
X000600Y014207D01*
X000600Y014048D02*
X001910Y014048D01*
X001910Y013890D02*
X000600Y013890D01*
X000600Y013731D02*
X001910Y013731D01*
X001910Y013573D02*
X000600Y013573D01*
X000600Y013414D02*
X001910Y013414D01*
X001910Y013256D02*
X000600Y013256D01*
X000600Y013097D02*
X001910Y013097D01*
X001910Y012939D02*
X000600Y012939D01*
X000600Y012780D02*
X001910Y012780D01*
X001910Y012622D02*
X000600Y012622D01*
X000600Y012463D02*
X001910Y012463D01*
X001910Y012305D02*
X000600Y012305D01*
X000600Y012146D02*
X001910Y012146D01*
X001910Y011988D02*
X000600Y011988D01*
X000600Y011829D02*
X001910Y011829D01*
X001910Y011671D02*
X000600Y011671D01*
X000600Y011512D02*
X001910Y011512D01*
X001910Y011354D02*
X000600Y011354D01*
X000600Y011195D02*
X001910Y011195D01*
X001910Y011037D02*
X000600Y011037D01*
X000600Y010878D02*
X001910Y010878D01*
X001910Y010720D02*
X000600Y010720D01*
X000600Y010561D02*
X001910Y010561D01*
X001910Y010403D02*
X000600Y010403D01*
X000600Y010244D02*
X001910Y010244D01*
X001910Y010086D02*
X000600Y010086D01*
X000600Y009927D02*
X001910Y009927D01*
X001910Y009769D02*
X000600Y009769D01*
X000600Y009610D02*
X001910Y009610D01*
X001910Y009452D02*
X000600Y009452D01*
X000600Y009293D02*
X001910Y009293D01*
X001910Y009135D02*
X000600Y009135D01*
X000600Y008976D02*
X001910Y008976D01*
X001910Y008818D02*
X000600Y008818D01*
X000600Y008659D02*
X001910Y008659D01*
X001910Y008501D02*
X000600Y008501D01*
X000600Y008342D02*
X001910Y008342D01*
X001910Y008184D02*
X000600Y008184D01*
X000600Y008025D02*
X001910Y008025D01*
X001910Y007867D02*
X000600Y007867D01*
X000600Y007708D02*
X001910Y007708D01*
X001910Y007550D02*
X000600Y007550D01*
X000600Y007391D02*
X001910Y007391D01*
X001910Y007233D02*
X000600Y007233D01*
X000600Y007074D02*
X001910Y007074D01*
X001910Y006916D02*
X000600Y006916D01*
X000600Y006757D02*
X001910Y006757D01*
X001910Y006599D02*
X000600Y006599D01*
X000600Y006440D02*
X001910Y006440D01*
X001910Y006282D02*
X000600Y006282D01*
X000600Y006123D02*
X001910Y006123D01*
X001910Y005965D02*
X000600Y005965D01*
X000600Y005806D02*
X001910Y005806D01*
X001910Y005648D02*
X000600Y005648D01*
X000600Y005489D02*
X001910Y005489D01*
X001910Y005331D02*
X000600Y005331D01*
X000600Y005172D02*
X001910Y005172D01*
X001910Y005014D02*
X000600Y005014D01*
X000600Y004855D02*
X001910Y004855D01*
X001910Y004697D02*
X000600Y004697D01*
X000600Y004538D02*
X001910Y004538D01*
X001910Y004380D02*
X000600Y004380D01*
X000600Y004221D02*
X001910Y004221D01*
X001910Y004063D02*
X000600Y004063D01*
X000600Y003904D02*
X001910Y003904D01*
X001910Y003746D02*
X000600Y003746D01*
X000600Y003587D02*
X001910Y003587D01*
X001806Y003429D02*
X000600Y003429D01*
X000600Y003270D02*
X001660Y003270D01*
X001660Y003112D02*
X000600Y003112D01*
X000600Y002953D02*
X001660Y002953D01*
X001783Y002795D02*
X000600Y002795D01*
X000600Y002636D02*
X001910Y002636D01*
X001855Y002478D02*
X000600Y002478D01*
X000600Y002319D02*
X001697Y002319D01*
X001660Y002161D02*
X000600Y002161D01*
X000600Y002002D02*
X001660Y002002D01*
X001734Y001844D02*
X000600Y001844D01*
X000600Y001685D02*
X001893Y001685D01*
X002307Y001685D02*
X002836Y001685D01*
X002901Y001620D02*
X003080Y001620D01*
X003080Y002080D01*
X003120Y002080D01*
X003120Y002120D01*
X003580Y002120D01*
X003580Y002299D01*
X003299Y002580D01*
X003120Y002580D01*
X003120Y002120D01*
X003080Y002120D01*
X003080Y002580D01*
X002901Y002580D01*
X002620Y002299D01*
X002620Y002120D01*
X003080Y002120D01*
X003080Y002080D01*
X002620Y002080D01*
X002620Y001901D01*
X002901Y001620D01*
X003080Y001685D02*
X003120Y001685D01*
X003120Y001620D02*
X003299Y001620D01*
X003580Y001901D01*
X003580Y002080D01*
X003120Y002080D01*
X003120Y001620D01*
X003120Y001844D02*
X003080Y001844D01*
X003080Y002002D02*
X003120Y002002D01*
X003120Y002161D02*
X003080Y002161D01*
X003080Y002319D02*
X003120Y002319D01*
X003120Y002478D02*
X003080Y002478D01*
X003080Y002620D02*
X002901Y002620D01*
X002620Y002901D01*
X002620Y003080D01*
X003080Y003080D01*
X003120Y003080D01*
X003120Y002620D01*
X003299Y002620D01*
X003410Y002731D01*
X003410Y002521D01*
X003521Y002410D01*
X003660Y002271D01*
X003660Y001918D01*
X003918Y001660D01*
X004282Y001660D01*
X004540Y001918D01*
X004540Y002282D01*
X004282Y002540D01*
X003929Y002540D01*
X003790Y002679D01*
X003790Y002788D01*
X003918Y002660D01*
X004282Y002660D01*
X004410Y002788D01*
X004410Y002521D01*
X004521Y002410D01*
X004660Y002271D01*
X004660Y001918D01*
X004918Y001660D01*
X005282Y001660D01*
X005540Y001918D01*
X005540Y002282D01*
X005282Y002540D01*
X004929Y002540D01*
X004790Y002679D01*
X004790Y002788D01*
X004918Y002660D01*
X005282Y002660D01*
X005410Y002788D01*
X005410Y002521D01*
X005521Y002410D01*
X005660Y002271D01*
X005660Y001918D01*
X005918Y001660D01*
X006282Y001660D01*
X006540Y001918D01*
X006540Y002282D01*
X006282Y002540D01*
X005929Y002540D01*
X005790Y002679D01*
X005790Y002788D01*
X005918Y002660D01*
X006282Y002660D01*
X006410Y002788D01*
X006410Y002521D01*
X006521Y002410D01*
X006660Y002271D01*
X006660Y001918D01*
X006918Y001660D01*
X007282Y001660D01*
X007540Y001918D01*
X007540Y002282D01*
X007282Y002540D01*
X006929Y002540D01*
X006790Y002679D01*
X006790Y002788D01*
X006918Y002660D01*
X007282Y002660D01*
X007540Y002918D01*
X007540Y003271D01*
X007679Y003410D01*
X007790Y003521D01*
X007790Y007288D01*
X007918Y007160D01*
X008282Y007160D01*
X008410Y007288D01*
X008410Y001521D01*
X008521Y001410D01*
X008679Y001410D01*
X013679Y001410D01*
X013790Y001521D01*
X013929Y001660D01*
X014282Y001660D01*
X014540Y001918D01*
X014540Y002282D01*
X014282Y002540D01*
X013918Y002540D01*
X013660Y002282D01*
X013660Y001929D01*
X013521Y001790D01*
X013412Y001790D01*
X013540Y001918D01*
X013540Y002282D01*
X013282Y002540D01*
X012929Y002540D01*
X012790Y002679D01*
X012790Y002788D01*
X012918Y002660D01*
X013282Y002660D01*
X013540Y002918D01*
X013540Y003282D01*
X013290Y003532D01*
X013290Y007179D01*
X013179Y007290D01*
X013179Y007290D01*
X009790Y010679D01*
X009679Y010790D01*
X009532Y010790D01*
X009282Y011040D01*
X008918Y011040D01*
X008660Y010782D01*
X008660Y010418D01*
X008788Y010290D01*
X008679Y010290D01*
X008540Y010429D01*
X008540Y010782D01*
X008412Y010910D01*
X008679Y010910D01*
X008929Y011160D01*
X009282Y011160D01*
X009540Y011418D01*
X009540Y011782D01*
X009282Y012040D01*
X008918Y012040D01*
X008660Y011782D01*
X008660Y011429D01*
X008521Y011290D01*
X008412Y011290D01*
X008540Y011418D01*
X008540Y011782D01*
X008282Y012040D01*
X007918Y012040D01*
X007668Y011790D01*
X007559Y011790D01*
X007929Y012160D01*
X008282Y012160D01*
X008540Y012418D01*
X008540Y012782D01*
X008282Y013040D01*
X007918Y013040D01*
X007660Y012782D01*
X007660Y012429D01*
X005410Y010179D01*
X005410Y003412D01*
X005282Y003540D01*
X004918Y003540D01*
X004790Y003412D01*
X004790Y010021D01*
X007929Y013160D01*
X008282Y013160D01*
X008540Y013418D01*
X008540Y013782D01*
X008282Y014040D01*
X007918Y014040D01*
X007660Y013782D01*
X007660Y013429D01*
X004410Y010179D01*
X004410Y003412D01*
X004282Y003540D01*
X003918Y003540D01*
X003790Y003412D01*
X003790Y010021D01*
X007929Y014160D01*
X008282Y014160D01*
X008540Y014418D01*
X008540Y014782D01*
X008282Y015040D01*
X007918Y015040D01*
X007660Y014782D01*
X007660Y014429D01*
X003410Y010179D01*
X003410Y003469D01*
X003299Y003580D01*
X003120Y003580D01*
X003120Y003120D01*
X003080Y003120D01*
X003080Y003580D01*
X002901Y003580D01*
X002620Y003299D01*
X002620Y003120D01*
X003080Y003120D01*
X003080Y003080D01*
X003080Y002620D01*
X003080Y002636D02*
X003120Y002636D01*
X003120Y002795D02*
X003080Y002795D01*
X003080Y002953D02*
X003120Y002953D01*
X003080Y003112D02*
X002540Y003112D01*
X002540Y003270D02*
X002620Y003270D01*
X002750Y003429D02*
X002394Y003429D01*
X002290Y003587D02*
X003410Y003587D01*
X003410Y003746D02*
X002290Y003746D01*
X002290Y003904D02*
X003410Y003904D01*
X003410Y004063D02*
X002290Y004063D01*
X002290Y004221D02*
X003410Y004221D01*
X003410Y004380D02*
X002290Y004380D01*
X002290Y004538D02*
X003410Y004538D01*
X003410Y004697D02*
X002290Y004697D01*
X002290Y004855D02*
X003410Y004855D01*
X003410Y005014D02*
X002290Y005014D01*
X002290Y005172D02*
X003410Y005172D01*
X003410Y005331D02*
X002290Y005331D01*
X002290Y005489D02*
X003410Y005489D01*
X003410Y005648D02*
X002290Y005648D01*
X002290Y005806D02*
X003410Y005806D01*
X003410Y005965D02*
X002290Y005965D01*
X002290Y006123D02*
X003410Y006123D01*
X003410Y006282D02*
X002290Y006282D01*
X002290Y006440D02*
X003410Y006440D01*
X003410Y006599D02*
X002290Y006599D01*
X002290Y006757D02*
X003410Y006757D01*
X003410Y006916D02*
X002290Y006916D01*
X002290Y007074D02*
X003410Y007074D01*
X003410Y007233D02*
X002290Y007233D01*
X002290Y007391D02*
X003410Y007391D01*
X003410Y007550D02*
X002290Y007550D01*
X002290Y007708D02*
X003410Y007708D01*
X003410Y007867D02*
X002290Y007867D01*
X002290Y008025D02*
X003410Y008025D01*
X003410Y008184D02*
X002290Y008184D01*
X002290Y008342D02*
X003410Y008342D01*
X003410Y008501D02*
X002290Y008501D01*
X002290Y008659D02*
X003410Y008659D01*
X003410Y008818D02*
X002290Y008818D01*
X002290Y008976D02*
X003410Y008976D01*
X003410Y009135D02*
X002290Y009135D01*
X002290Y009293D02*
X003410Y009293D01*
X003410Y009452D02*
X002290Y009452D01*
X002290Y009610D02*
X003410Y009610D01*
X003410Y009769D02*
X002290Y009769D01*
X002290Y009927D02*
X003410Y009927D01*
X003410Y010086D02*
X002290Y010086D01*
X002290Y010244D02*
X003475Y010244D01*
X003634Y010403D02*
X002290Y010403D01*
X002290Y010561D02*
X003792Y010561D01*
X003951Y010720D02*
X002290Y010720D01*
X002290Y010878D02*
X004109Y010878D01*
X004268Y011037D02*
X002290Y011037D01*
X002290Y011195D02*
X004426Y011195D01*
X004585Y011354D02*
X002290Y011354D01*
X002290Y011512D02*
X004743Y011512D01*
X004902Y011671D02*
X002290Y011671D01*
X002290Y011829D02*
X005060Y011829D01*
X005219Y011988D02*
X002290Y011988D01*
X002290Y012146D02*
X005377Y012146D01*
X005536Y012305D02*
X002290Y012305D01*
X002290Y012463D02*
X005694Y012463D01*
X005853Y012622D02*
X002290Y012622D01*
X002290Y012780D02*
X006011Y012780D01*
X006170Y012939D02*
X002290Y012939D01*
X002290Y013097D02*
X006328Y013097D01*
X006487Y013256D02*
X002290Y013256D01*
X002290Y013414D02*
X006645Y013414D01*
X006804Y013573D02*
X002290Y013573D01*
X002290Y013731D02*
X006962Y013731D01*
X007121Y013890D02*
X002290Y013890D01*
X002290Y014048D02*
X007279Y014048D01*
X007438Y014207D02*
X002290Y014207D01*
X002290Y014365D02*
X007596Y014365D01*
X007660Y014524D02*
X002290Y014524D01*
X002290Y014682D02*
X007660Y014682D01*
X007718Y014841D02*
X002290Y014841D01*
X002290Y014999D02*
X007877Y014999D01*
X007762Y015316D02*
X002290Y015316D01*
X002290Y015158D02*
X008864Y015158D01*
X008901Y015120D02*
X008620Y015401D01*
X008620Y015580D01*
X009080Y015580D01*
X009080Y015620D01*
X009080Y016080D01*
X008901Y016080D01*
X008620Y015799D01*
X008620Y015620D01*
X009080Y015620D01*
X009120Y015620D01*
X009120Y016080D01*
X009299Y016080D01*
X009580Y015799D01*
X009580Y015620D01*
X009120Y015620D01*
X009120Y015580D01*
X009580Y015580D01*
X009580Y015401D01*
X009299Y015120D01*
X009120Y015120D01*
X009120Y015580D01*
X009080Y015580D01*
X009080Y015120D01*
X008901Y015120D01*
X008918Y015040D02*
X008660Y014782D01*
X008660Y014418D01*
X008918Y014160D01*
X009282Y014160D01*
X009540Y014418D01*
X009540Y014782D01*
X009282Y015040D01*
X008918Y015040D01*
X008877Y014999D02*
X008323Y014999D01*
X008482Y014841D02*
X008718Y014841D01*
X008660Y014682D02*
X008540Y014682D01*
X008540Y014524D02*
X008660Y014524D01*
X008713Y014365D02*
X008487Y014365D01*
X008329Y014207D02*
X008871Y014207D01*
X008918Y014040D02*
X008660Y013782D01*
X008660Y013418D01*
X008918Y013160D01*
X009282Y013160D01*
X009540Y013418D01*
X009540Y013782D01*
X009282Y014040D01*
X008918Y014040D01*
X008767Y013890D02*
X008433Y013890D01*
X008540Y013731D02*
X008660Y013731D01*
X008660Y013573D02*
X008540Y013573D01*
X008536Y013414D02*
X008664Y013414D01*
X008822Y013256D02*
X008378Y013256D01*
X008384Y012939D02*
X008816Y012939D01*
X008918Y013040D02*
X008660Y012782D01*
X008660Y012418D01*
X008918Y012160D01*
X009282Y012160D01*
X009540Y012418D01*
X009540Y012782D01*
X009282Y013040D01*
X008918Y013040D01*
X008660Y012780D02*
X008540Y012780D01*
X008540Y012622D02*
X008660Y012622D01*
X008660Y012463D02*
X008540Y012463D01*
X008427Y012305D02*
X008773Y012305D01*
X008865Y011988D02*
X008335Y011988D01*
X008493Y011829D02*
X008707Y011829D01*
X008660Y011671D02*
X008540Y011671D01*
X008540Y011512D02*
X008660Y011512D01*
X008585Y011354D02*
X008476Y011354D01*
X008805Y011037D02*
X008914Y011037D01*
X008756Y010878D02*
X008444Y010878D01*
X008540Y010720D02*
X008660Y010720D01*
X008660Y010561D02*
X008540Y010561D01*
X008566Y010403D02*
X008675Y010403D01*
X008346Y010086D02*
X007790Y010086D01*
X007918Y010040D02*
X007790Y009912D01*
X007790Y010288D01*
X007918Y010160D01*
X008271Y010160D01*
X008521Y009910D01*
X008788Y009910D01*
X008660Y009782D01*
X008660Y009418D01*
X008918Y009160D01*
X009282Y009160D01*
X009540Y009418D01*
X009540Y009782D01*
X009412Y009910D01*
X009521Y009910D01*
X012410Y007021D01*
X012410Y003469D01*
X012299Y003580D01*
X012120Y003580D01*
X012120Y003120D01*
X012080Y003120D01*
X012080Y003580D01*
X011901Y003580D01*
X011620Y003299D01*
X011620Y003120D01*
X012080Y003120D01*
X012080Y003080D01*
X012120Y003080D01*
X012120Y002620D01*
X012299Y002620D01*
X012410Y002731D01*
X012410Y002521D01*
X012521Y002410D01*
X012660Y002271D01*
X012660Y001918D01*
X012788Y001790D01*
X012469Y001790D01*
X012580Y001901D01*
X012580Y002080D01*
X012120Y002080D01*
X012120Y002120D01*
X012080Y002120D01*
X012080Y002580D01*
X011901Y002580D01*
X011620Y002299D01*
X011620Y002120D01*
X012080Y002120D01*
X012080Y002080D01*
X011620Y002080D01*
X011620Y001901D01*
X011731Y001790D01*
X011412Y001790D01*
X011540Y001918D01*
X011540Y002282D01*
X011290Y002532D01*
X011290Y002668D01*
X011540Y002918D01*
X011540Y003282D01*
X011282Y003540D01*
X010918Y003540D01*
X010660Y003282D01*
X010660Y002918D01*
X010910Y002668D01*
X010910Y002532D01*
X010660Y002282D01*
X010660Y001918D01*
X010788Y001790D01*
X008790Y001790D01*
X008790Y007288D01*
X008918Y007160D01*
X009282Y007160D01*
X009540Y007418D01*
X009540Y007782D01*
X009282Y008040D01*
X008918Y008040D01*
X008790Y007912D01*
X008790Y008288D01*
X008918Y008160D01*
X009282Y008160D01*
X009540Y008418D01*
X009540Y008782D01*
X009282Y009040D01*
X008918Y009040D01*
X008790Y008912D01*
X008790Y009179D01*
X008540Y009429D01*
X008540Y009782D01*
X008282Y010040D01*
X007918Y010040D01*
X007805Y009927D02*
X007790Y009927D01*
X007790Y010244D02*
X007834Y010244D01*
X008395Y009927D02*
X008504Y009927D01*
X008540Y009769D02*
X008660Y009769D01*
X008660Y009610D02*
X008540Y009610D01*
X008540Y009452D02*
X008660Y009452D01*
X008676Y009293D02*
X008785Y009293D01*
X008790Y009135D02*
X010297Y009135D01*
X010138Y009293D02*
X009415Y009293D01*
X009540Y009452D02*
X009980Y009452D01*
X009821Y009610D02*
X009540Y009610D01*
X009540Y009769D02*
X009663Y009769D01*
X010225Y010244D02*
X018100Y010244D01*
X018100Y010086D02*
X010383Y010086D01*
X010542Y009927D02*
X018100Y009927D01*
X018100Y009769D02*
X010700Y009769D01*
X010859Y009610D02*
X018100Y009610D01*
X018100Y009452D02*
X011017Y009452D01*
X011176Y009293D02*
X018100Y009293D01*
X018100Y009135D02*
X011334Y009135D01*
X011493Y008976D02*
X018100Y008976D01*
X018100Y008818D02*
X011651Y008818D01*
X011810Y008659D02*
X018100Y008659D01*
X018100Y008501D02*
X011968Y008501D01*
X012127Y008342D02*
X018100Y008342D01*
X018100Y008184D02*
X012285Y008184D01*
X012444Y008025D02*
X018100Y008025D01*
X018100Y007867D02*
X012602Y007867D01*
X012761Y007708D02*
X018100Y007708D01*
X018100Y007550D02*
X012919Y007550D01*
X013078Y007391D02*
X018100Y007391D01*
X018100Y007233D02*
X013236Y007233D01*
X013290Y007074D02*
X018100Y007074D01*
X018100Y006916D02*
X013290Y006916D01*
X013290Y006757D02*
X018100Y006757D01*
X018100Y006599D02*
X013290Y006599D01*
X013290Y006440D02*
X018100Y006440D01*
X018100Y006282D02*
X013290Y006282D01*
X013290Y006123D02*
X018100Y006123D01*
X018100Y005965D02*
X013290Y005965D01*
X013290Y005806D02*
X018100Y005806D01*
X018100Y005648D02*
X013290Y005648D01*
X013290Y005489D02*
X018100Y005489D01*
X018100Y005331D02*
X014322Y005331D01*
X014281Y005371D02*
X014371Y005281D01*
X014420Y005164D01*
X014420Y005049D01*
X015929Y003540D01*
X016282Y003540D01*
X016540Y003282D01*
X016540Y002918D01*
X016282Y002660D01*
X015918Y002660D01*
X015660Y002918D01*
X015660Y003271D01*
X014151Y004780D01*
X014036Y004780D01*
X013919Y004829D01*
X013829Y004919D01*
X013780Y005036D01*
X013780Y005164D01*
X013829Y005281D01*
X013919Y005371D01*
X014036Y005420D01*
X014164Y005420D01*
X014281Y005371D01*
X014417Y005172D02*
X018100Y005172D01*
X018100Y005014D02*
X014455Y005014D01*
X014614Y004855D02*
X018100Y004855D01*
X018100Y004697D02*
X014772Y004697D01*
X014931Y004538D02*
X018100Y004538D01*
X018100Y004380D02*
X015089Y004380D01*
X015248Y004221D02*
X018100Y004221D01*
X018100Y004063D02*
X015406Y004063D01*
X015565Y003904D02*
X018100Y003904D01*
X018100Y003746D02*
X015723Y003746D01*
X015882Y003587D02*
X018100Y003587D01*
X018100Y003429D02*
X016394Y003429D01*
X016540Y003270D02*
X018100Y003270D01*
X018100Y003112D02*
X016540Y003112D01*
X016540Y002953D02*
X018100Y002953D01*
X018100Y002795D02*
X016417Y002795D01*
X016282Y002540D02*
X015918Y002540D01*
X015660Y002282D01*
X015660Y001918D01*
X015918Y001660D01*
X016282Y001660D01*
X016540Y001918D01*
X016540Y002282D01*
X016282Y002540D01*
X016345Y002478D02*
X018100Y002478D01*
X018100Y002636D02*
X012833Y002636D01*
X012612Y002319D02*
X012560Y002319D01*
X012580Y002299D02*
X012299Y002580D01*
X012120Y002580D01*
X012120Y002120D01*
X012580Y002120D01*
X012580Y002299D01*
X012580Y002161D02*
X012660Y002161D01*
X012660Y002002D02*
X012580Y002002D01*
X012522Y001844D02*
X012734Y001844D01*
X012120Y002161D02*
X012080Y002161D01*
X012080Y002319D02*
X012120Y002319D01*
X012120Y002478D02*
X012080Y002478D01*
X012080Y002620D02*
X011901Y002620D01*
X011620Y002901D01*
X011620Y003080D01*
X012080Y003080D01*
X012080Y002620D01*
X012080Y002636D02*
X012120Y002636D01*
X012120Y002795D02*
X012080Y002795D01*
X012080Y002953D02*
X012120Y002953D01*
X012080Y003112D02*
X011540Y003112D01*
X011540Y003270D02*
X011620Y003270D01*
X011750Y003429D02*
X011394Y003429D01*
X011540Y002953D02*
X011620Y002953D01*
X011727Y002795D02*
X011417Y002795D01*
X011290Y002636D02*
X011885Y002636D01*
X011799Y002478D02*
X011345Y002478D01*
X011503Y002319D02*
X011640Y002319D01*
X011620Y002161D02*
X011540Y002161D01*
X011540Y002002D02*
X011620Y002002D01*
X011678Y001844D02*
X011466Y001844D01*
X010734Y001844D02*
X008790Y001844D01*
X008790Y002002D02*
X010660Y002002D01*
X010660Y002161D02*
X008790Y002161D01*
X008790Y002319D02*
X010697Y002319D01*
X010855Y002478D02*
X008790Y002478D01*
X008790Y002636D02*
X010910Y002636D01*
X010783Y002795D02*
X008790Y002795D01*
X008790Y002953D02*
X010660Y002953D01*
X010660Y003112D02*
X008790Y003112D01*
X008790Y003270D02*
X010660Y003270D01*
X010806Y003429D02*
X008790Y003429D01*
X008790Y003587D02*
X012410Y003587D01*
X012410Y003746D02*
X008790Y003746D01*
X008790Y003904D02*
X012410Y003904D01*
X012410Y004063D02*
X008790Y004063D01*
X008790Y004221D02*
X012410Y004221D01*
X012410Y004380D02*
X008790Y004380D01*
X008790Y004538D02*
X012410Y004538D01*
X012410Y004697D02*
X008790Y004697D01*
X008790Y004855D02*
X012410Y004855D01*
X012410Y005014D02*
X008790Y005014D01*
X008790Y005172D02*
X012410Y005172D01*
X012410Y005331D02*
X008790Y005331D01*
X008790Y005489D02*
X012410Y005489D01*
X012410Y005648D02*
X008790Y005648D01*
X008790Y005806D02*
X012410Y005806D01*
X012410Y005965D02*
X008790Y005965D01*
X008790Y006123D02*
X012410Y006123D01*
X012410Y006282D02*
X008790Y006282D01*
X008790Y006440D02*
X012410Y006440D01*
X012410Y006599D02*
X008790Y006599D01*
X008790Y006757D02*
X012410Y006757D01*
X012410Y006916D02*
X008790Y006916D01*
X008790Y007074D02*
X012357Y007074D01*
X012199Y007233D02*
X009355Y007233D01*
X009513Y007391D02*
X012040Y007391D01*
X011882Y007550D02*
X009540Y007550D01*
X009540Y007708D02*
X011723Y007708D01*
X011565Y007867D02*
X009456Y007867D01*
X009297Y008025D02*
X011406Y008025D01*
X011248Y008184D02*
X009306Y008184D01*
X009464Y008342D02*
X011089Y008342D01*
X010931Y008501D02*
X009540Y008501D01*
X009540Y008659D02*
X010772Y008659D01*
X010614Y008818D02*
X009505Y008818D01*
X009346Y008976D02*
X010455Y008976D01*
X010066Y010403D02*
X018100Y010403D01*
X018100Y010561D02*
X009908Y010561D01*
X009790Y010679D02*
X009790Y010679D01*
X009749Y010720D02*
X018100Y010720D01*
X018100Y010878D02*
X009444Y010878D01*
X009286Y011037D02*
X018100Y011037D01*
X018100Y011195D02*
X009317Y011195D01*
X009476Y011354D02*
X018100Y011354D01*
X018100Y011512D02*
X009540Y011512D01*
X009540Y011671D02*
X018100Y011671D01*
X018100Y011829D02*
X009493Y011829D01*
X009335Y011988D02*
X018100Y011988D01*
X018100Y012146D02*
X007915Y012146D01*
X007865Y011988D02*
X007756Y011988D01*
X007707Y011829D02*
X007598Y011829D01*
X007377Y012146D02*
X006915Y012146D01*
X007073Y012305D02*
X007536Y012305D01*
X007660Y012463D02*
X007232Y012463D01*
X007390Y012622D02*
X007660Y012622D01*
X007660Y012780D02*
X007549Y012780D01*
X007707Y012939D02*
X007816Y012939D01*
X007866Y013097D02*
X018100Y013097D01*
X018100Y012939D02*
X009384Y012939D01*
X009540Y012780D02*
X018100Y012780D01*
X018100Y012622D02*
X009540Y012622D01*
X009540Y012463D02*
X018100Y012463D01*
X018100Y012305D02*
X009427Y012305D01*
X009378Y013256D02*
X018100Y013256D01*
X018100Y013414D02*
X009536Y013414D01*
X009540Y013573D02*
X018100Y013573D01*
X018100Y013731D02*
X009540Y013731D01*
X009433Y013890D02*
X018100Y013890D01*
X018100Y014048D02*
X007817Y014048D01*
X007767Y013890D02*
X007658Y013890D01*
X007660Y013731D02*
X007500Y013731D01*
X007341Y013573D02*
X007660Y013573D01*
X007645Y013414D02*
X007183Y013414D01*
X007024Y013256D02*
X007487Y013256D01*
X007328Y013097D02*
X006866Y013097D01*
X006707Y012939D02*
X007170Y012939D01*
X007011Y012780D02*
X006549Y012780D01*
X006390Y012622D02*
X006853Y012622D01*
X006694Y012463D02*
X006232Y012463D01*
X006073Y012305D02*
X006536Y012305D01*
X006377Y012146D02*
X005915Y012146D01*
X005756Y011988D02*
X006219Y011988D01*
X006060Y011829D02*
X005598Y011829D01*
X005439Y011671D02*
X005902Y011671D01*
X005743Y011512D02*
X005281Y011512D01*
X005122Y011354D02*
X005585Y011354D01*
X005426Y011195D02*
X004964Y011195D01*
X004805Y011037D02*
X005268Y011037D01*
X005109Y010878D02*
X004647Y010878D01*
X004488Y010720D02*
X004951Y010720D01*
X004792Y010561D02*
X004330Y010561D01*
X004171Y010403D02*
X004634Y010403D01*
X004475Y010244D02*
X004013Y010244D01*
X003854Y010086D02*
X004410Y010086D01*
X004410Y009927D02*
X003790Y009927D01*
X003790Y009769D02*
X004410Y009769D01*
X004410Y009610D02*
X003790Y009610D01*
X003790Y009452D02*
X004410Y009452D01*
X004410Y009293D02*
X003790Y009293D01*
X003790Y009135D02*
X004410Y009135D01*
X004410Y008976D02*
X003790Y008976D01*
X003790Y008818D02*
X004410Y008818D01*
X004410Y008659D02*
X003790Y008659D01*
X003790Y008501D02*
X004410Y008501D01*
X004410Y008342D02*
X003790Y008342D01*
X003790Y008184D02*
X004410Y008184D01*
X004410Y008025D02*
X003790Y008025D01*
X003790Y007867D02*
X004410Y007867D01*
X004410Y007708D02*
X003790Y007708D01*
X003790Y007550D02*
X004410Y007550D01*
X004410Y007391D02*
X003790Y007391D01*
X003790Y007233D02*
X004410Y007233D01*
X004410Y007074D02*
X003790Y007074D01*
X003790Y006916D02*
X004410Y006916D01*
X004410Y006757D02*
X003790Y006757D01*
X003790Y006599D02*
X004410Y006599D01*
X004410Y006440D02*
X003790Y006440D01*
X003790Y006282D02*
X004410Y006282D01*
X004410Y006123D02*
X003790Y006123D01*
X003790Y005965D02*
X004410Y005965D01*
X004410Y005806D02*
X003790Y005806D01*
X003790Y005648D02*
X004410Y005648D01*
X004410Y005489D02*
X003790Y005489D01*
X003790Y005331D02*
X004410Y005331D01*
X004410Y005172D02*
X003790Y005172D01*
X003790Y005014D02*
X004410Y005014D01*
X004410Y004855D02*
X003790Y004855D01*
X003790Y004697D02*
X004410Y004697D01*
X004410Y004538D02*
X003790Y004538D01*
X003790Y004380D02*
X004410Y004380D01*
X004410Y004221D02*
X003790Y004221D01*
X003790Y004063D02*
X004410Y004063D01*
X004410Y003904D02*
X003790Y003904D01*
X003790Y003746D02*
X004410Y003746D01*
X004410Y003587D02*
X003790Y003587D01*
X003790Y003429D02*
X003806Y003429D01*
X004394Y003429D02*
X004410Y003429D01*
X004790Y003429D02*
X004806Y003429D01*
X004790Y003587D02*
X005410Y003587D01*
X005394Y003429D02*
X005410Y003429D01*
X005410Y003746D02*
X004790Y003746D01*
X004790Y003904D02*
X005410Y003904D01*
X005410Y004063D02*
X004790Y004063D01*
X004790Y004221D02*
X005410Y004221D01*
X005410Y004380D02*
X004790Y004380D01*
X004790Y004538D02*
X005410Y004538D01*
X005410Y004697D02*
X004790Y004697D01*
X004790Y004855D02*
X005410Y004855D01*
X005410Y005014D02*
X004790Y005014D01*
X004790Y005172D02*
X005410Y005172D01*
X005410Y005331D02*
X004790Y005331D01*
X004790Y005489D02*
X005410Y005489D01*
X005410Y005648D02*
X004790Y005648D01*
X004790Y005806D02*
X005410Y005806D01*
X005410Y005965D02*
X004790Y005965D01*
X004790Y006123D02*
X005410Y006123D01*
X005410Y006282D02*
X004790Y006282D01*
X004790Y006440D02*
X005410Y006440D01*
X005410Y006599D02*
X004790Y006599D01*
X004790Y006757D02*
X005410Y006757D01*
X005410Y006916D02*
X004790Y006916D01*
X004790Y007074D02*
X005410Y007074D01*
X005410Y007233D02*
X004790Y007233D01*
X004790Y007391D02*
X005410Y007391D01*
X005410Y007550D02*
X004790Y007550D01*
X004790Y007708D02*
X005410Y007708D01*
X005410Y007867D02*
X004790Y007867D01*
X004790Y008025D02*
X005410Y008025D01*
X005410Y008184D02*
X004790Y008184D01*
X004790Y008342D02*
X005410Y008342D01*
X005410Y008501D02*
X004790Y008501D01*
X004790Y008659D02*
X005410Y008659D01*
X005410Y008818D02*
X004790Y008818D01*
X004790Y008976D02*
X005410Y008976D01*
X005410Y009135D02*
X004790Y009135D01*
X004790Y009293D02*
X005410Y009293D01*
X005410Y009452D02*
X004790Y009452D01*
X004790Y009610D02*
X005410Y009610D01*
X005410Y009769D02*
X004790Y009769D01*
X004790Y009927D02*
X005410Y009927D01*
X005410Y010086D02*
X004854Y010086D01*
X005013Y010244D02*
X005475Y010244D01*
X005634Y010403D02*
X005171Y010403D01*
X005330Y010561D02*
X005792Y010561D01*
X005951Y010720D02*
X005488Y010720D01*
X005647Y010878D02*
X006109Y010878D01*
X006268Y011037D02*
X005805Y011037D01*
X005964Y011195D02*
X006426Y011195D01*
X006585Y011354D02*
X006122Y011354D01*
X006281Y011512D02*
X006743Y011512D01*
X006902Y011671D02*
X006439Y011671D01*
X006598Y011829D02*
X007060Y011829D01*
X007219Y011988D02*
X006756Y011988D01*
X009329Y014207D02*
X018100Y014207D01*
X018100Y014365D02*
X009487Y014365D01*
X009540Y014524D02*
X018100Y014524D01*
X018100Y014682D02*
X009540Y014682D01*
X009482Y014841D02*
X018100Y014841D01*
X018100Y014999D02*
X009323Y014999D01*
X009336Y015158D02*
X018100Y015158D01*
X018100Y015316D02*
X009495Y015316D01*
X009580Y015475D02*
X018100Y015475D01*
X018100Y015633D02*
X009580Y015633D01*
X009580Y015792D02*
X018100Y015792D01*
X018100Y015950D02*
X009429Y015950D01*
X009120Y015950D02*
X009080Y015950D01*
X009080Y015792D02*
X009120Y015792D01*
X009120Y015633D02*
X009080Y015633D01*
X009080Y015475D02*
X009120Y015475D01*
X009120Y015316D02*
X009080Y015316D01*
X009080Y015158D02*
X009120Y015158D01*
X008705Y015316D02*
X008438Y015316D01*
X008540Y015475D02*
X008620Y015475D01*
X008620Y015633D02*
X008540Y015633D01*
X008531Y015792D02*
X008620Y015792D01*
X008771Y015950D02*
X008372Y015950D01*
X008790Y008976D02*
X008854Y008976D01*
X008894Y008184D02*
X008790Y008184D01*
X008790Y008025D02*
X008903Y008025D01*
X008845Y007233D02*
X008790Y007233D01*
X008410Y007233D02*
X008355Y007233D01*
X008410Y007074D02*
X007790Y007074D01*
X007790Y006916D02*
X008410Y006916D01*
X008410Y006757D02*
X007790Y006757D01*
X007790Y006599D02*
X008410Y006599D01*
X008410Y006440D02*
X007790Y006440D01*
X007790Y006282D02*
X008410Y006282D01*
X008410Y006123D02*
X007790Y006123D01*
X007790Y005965D02*
X008410Y005965D01*
X008410Y005806D02*
X007790Y005806D01*
X007790Y005648D02*
X008410Y005648D01*
X008410Y005489D02*
X007790Y005489D01*
X007790Y005331D02*
X008410Y005331D01*
X008410Y005172D02*
X007790Y005172D01*
X007790Y005014D02*
X008410Y005014D01*
X008410Y004855D02*
X007790Y004855D01*
X007790Y004697D02*
X008410Y004697D01*
X008410Y004538D02*
X007790Y004538D01*
X007790Y004380D02*
X008410Y004380D01*
X008410Y004221D02*
X007790Y004221D01*
X007790Y004063D02*
X008410Y004063D01*
X008410Y003904D02*
X007790Y003904D01*
X007790Y003746D02*
X008410Y003746D01*
X008410Y003587D02*
X007790Y003587D01*
X007697Y003429D02*
X008410Y003429D01*
X008410Y003270D02*
X007540Y003270D01*
X007540Y003112D02*
X008410Y003112D01*
X008410Y002953D02*
X007540Y002953D01*
X007417Y002795D02*
X008410Y002795D01*
X008410Y002636D02*
X006833Y002636D01*
X006612Y002319D02*
X006503Y002319D01*
X006540Y002161D02*
X006660Y002161D01*
X006660Y002002D02*
X006540Y002002D01*
X006466Y001844D02*
X006734Y001844D01*
X006893Y001685D02*
X006307Y001685D01*
X005893Y001685D02*
X005307Y001685D01*
X005466Y001844D02*
X005734Y001844D01*
X005660Y002002D02*
X005540Y002002D01*
X005540Y002161D02*
X005660Y002161D01*
X005612Y002319D02*
X005503Y002319D01*
X005454Y002478D02*
X005345Y002478D01*
X005410Y002636D02*
X004833Y002636D01*
X004612Y002319D02*
X004503Y002319D01*
X004540Y002161D02*
X004660Y002161D01*
X004660Y002002D02*
X004540Y002002D01*
X004466Y001844D02*
X004734Y001844D01*
X004893Y001685D02*
X004307Y001685D01*
X003893Y001685D02*
X003364Y001685D01*
X003522Y001844D02*
X003734Y001844D01*
X003660Y002002D02*
X003580Y002002D01*
X003580Y002161D02*
X003660Y002161D01*
X003612Y002319D02*
X003560Y002319D01*
X003454Y002478D02*
X003401Y002478D01*
X003410Y002636D02*
X003315Y002636D01*
X002885Y002636D02*
X002290Y002636D01*
X002345Y002478D02*
X002799Y002478D01*
X002640Y002319D02*
X002503Y002319D01*
X002540Y002161D02*
X002620Y002161D01*
X002620Y002002D02*
X002540Y002002D01*
X002466Y001844D02*
X002678Y001844D01*
X002727Y002795D02*
X002417Y002795D01*
X002540Y002953D02*
X002620Y002953D01*
X003080Y003270D02*
X003120Y003270D01*
X003120Y003429D02*
X003080Y003429D01*
X003833Y002636D02*
X004410Y002636D01*
X004454Y002478D02*
X004345Y002478D01*
X005833Y002636D02*
X006410Y002636D01*
X006454Y002478D02*
X006345Y002478D01*
X007345Y002478D02*
X008410Y002478D01*
X008410Y002319D02*
X007503Y002319D01*
X007540Y002161D02*
X008410Y002161D01*
X008410Y002002D02*
X007540Y002002D01*
X007466Y001844D02*
X008410Y001844D01*
X008410Y001685D02*
X007307Y001685D01*
X008410Y001527D02*
X000600Y001527D01*
X000600Y001368D02*
X018100Y001368D01*
X018100Y001210D02*
X000600Y001210D01*
X000600Y001051D02*
X018100Y001051D01*
X018100Y000893D02*
X000600Y000893D01*
X000600Y000734D02*
X018100Y000734D01*
X018100Y001527D02*
X013795Y001527D01*
X013575Y001844D02*
X013466Y001844D01*
X013540Y002002D02*
X013660Y002002D01*
X013660Y002161D02*
X013540Y002161D01*
X013503Y002319D02*
X013697Y002319D01*
X013855Y002478D02*
X013345Y002478D01*
X013417Y002795D02*
X013783Y002795D01*
X013660Y002918D02*
X013918Y002660D01*
X014282Y002660D01*
X014540Y002918D01*
X014540Y003282D01*
X014282Y003540D01*
X013918Y003540D01*
X013660Y003282D01*
X013660Y002918D01*
X013660Y002953D02*
X013540Y002953D01*
X013540Y003112D02*
X013660Y003112D01*
X013660Y003270D02*
X013540Y003270D01*
X013394Y003429D02*
X013806Y003429D01*
X013290Y003587D02*
X015344Y003587D01*
X015282Y003540D02*
X014918Y003540D01*
X014660Y003282D01*
X014660Y002918D01*
X014918Y002660D01*
X015282Y002660D01*
X015540Y002918D01*
X015540Y003282D01*
X015282Y003540D01*
X015394Y003429D02*
X015503Y003429D01*
X015540Y003270D02*
X015660Y003270D01*
X015660Y003112D02*
X015540Y003112D01*
X015540Y002953D02*
X015660Y002953D01*
X015783Y002795D02*
X015417Y002795D01*
X015282Y002540D02*
X014918Y002540D01*
X014660Y002282D01*
X014660Y001918D01*
X014918Y001660D01*
X015282Y001660D01*
X015540Y001918D01*
X015540Y002282D01*
X015282Y002540D01*
X015345Y002478D02*
X015855Y002478D01*
X015697Y002319D02*
X015503Y002319D01*
X015540Y002161D02*
X015660Y002161D01*
X015660Y002002D02*
X015540Y002002D01*
X015466Y001844D02*
X015734Y001844D01*
X015893Y001685D02*
X015307Y001685D01*
X014893Y001685D02*
X014307Y001685D01*
X014466Y001844D02*
X014734Y001844D01*
X014660Y002002D02*
X014540Y002002D01*
X014540Y002161D02*
X014660Y002161D01*
X014697Y002319D02*
X014503Y002319D01*
X014345Y002478D02*
X014855Y002478D01*
X014783Y002795D02*
X014417Y002795D01*
X014540Y002953D02*
X014660Y002953D01*
X014660Y003112D02*
X014540Y003112D01*
X014540Y003270D02*
X014660Y003270D01*
X014806Y003429D02*
X014394Y003429D01*
X015027Y003904D02*
X013290Y003904D01*
X013290Y003746D02*
X015186Y003746D01*
X014869Y004063D02*
X013290Y004063D01*
X013290Y004221D02*
X014710Y004221D01*
X014552Y004380D02*
X013290Y004380D01*
X013290Y004538D02*
X014393Y004538D01*
X014235Y004697D02*
X013290Y004697D01*
X013290Y004855D02*
X013892Y004855D01*
X013789Y005014D02*
X013290Y005014D01*
X013290Y005172D02*
X013783Y005172D01*
X013878Y005331D02*
X013290Y005331D01*
X012120Y003429D02*
X012080Y003429D01*
X012080Y003270D02*
X012120Y003270D01*
X012315Y002636D02*
X012410Y002636D01*
X012401Y002478D02*
X012454Y002478D01*
X016307Y001685D02*
X018100Y001685D01*
X018100Y001844D02*
X016466Y001844D01*
X016540Y002002D02*
X018100Y002002D01*
X018100Y002161D02*
X016540Y002161D01*
X016503Y002319D02*
X018100Y002319D01*
X007845Y007233D02*
X007790Y007233D01*
D13*
X014100Y005100D03*
M02*
