G75*
G70*
%OFA0B0*%
%FSLAX24Y24*%
%IPPOS*%
%LPD*%
%AMOC8*
5,1,8,0,0,1.08239X$1,22.5*
%
%ADD10C,0.0000*%
%ADD11OC8,0.0600*%
%ADD12C,0.0100*%
%ADD13C,0.0160*%
%ADD14C,0.0400*%
D10*
X000100Y000100D02*
X000100Y017096D01*
X018470Y017096D01*
X018470Y000100D01*
X000100Y000100D01*
D11*
X002100Y002100D03*
X003100Y002100D03*
X003100Y003100D03*
X002100Y003100D03*
X004100Y003100D03*
X005100Y003100D03*
X006100Y003100D03*
X006100Y002100D03*
X005100Y002100D03*
X004100Y002100D03*
X007100Y002100D03*
X007100Y003100D03*
X011100Y003100D03*
X011100Y002100D03*
X012100Y002100D03*
X013100Y002100D03*
X014100Y002100D03*
X014100Y003100D03*
X013100Y003100D03*
X012100Y003100D03*
X015100Y003100D03*
X016100Y003100D03*
X016100Y002100D03*
X015100Y002100D03*
X009100Y007600D03*
X009100Y008600D03*
X009100Y009600D03*
X009100Y010600D03*
X009100Y011600D03*
X009100Y012600D03*
X009100Y013600D03*
X009100Y014600D03*
X009100Y015600D03*
X008100Y015600D03*
X008100Y014600D03*
X008100Y013600D03*
X008100Y012600D03*
X008100Y011600D03*
X008100Y010600D03*
X008100Y009600D03*
X008100Y008600D03*
X008100Y007600D03*
D12*
X011100Y004600D01*
X015600Y004600D01*
X016600Y003600D01*
X016600Y002100D01*
X016100Y002100D01*
X015600Y001600D02*
X015600Y003100D01*
X015100Y003100D01*
X014600Y003600D02*
X014600Y002100D01*
X015100Y002100D01*
X015600Y001600D02*
X017100Y001600D01*
X017100Y003600D01*
X015100Y005600D01*
X012100Y005600D01*
X009100Y008600D01*
X008600Y009100D02*
X009100Y009600D01*
X008600Y009100D02*
X007100Y009100D01*
X007100Y004100D01*
X007600Y003600D01*
X013600Y003600D01*
X014100Y003100D01*
X014600Y003600D02*
X014100Y004100D01*
X007600Y004100D01*
X007600Y008100D01*
X008100Y008600D01*
X009100Y007600D02*
X011600Y005100D01*
X014100Y005100D01*
X012100Y002100D02*
X011600Y001600D01*
X003600Y001600D01*
X003100Y002100D01*
X002600Y002600D02*
X002100Y003100D01*
X002600Y002600D02*
X010600Y002600D01*
X011100Y002100D01*
X006100Y003100D02*
X006100Y010600D01*
X007600Y012100D01*
X008600Y012100D01*
X009100Y012600D01*
X008600Y013100D02*
X009100Y013600D01*
X008600Y013100D02*
X007600Y013100D01*
X005100Y010600D01*
X005100Y003100D01*
X004100Y003100D02*
X004100Y010600D01*
X007600Y014100D01*
X008600Y014100D01*
X009100Y014600D01*
D13*
X009560Y014524D02*
X017390Y014524D01*
X017390Y014682D02*
X009560Y014682D01*
X009560Y014791D02*
X009291Y015060D01*
X008909Y015060D01*
X008640Y014791D01*
X008640Y014437D01*
X008513Y014310D01*
X008461Y014310D01*
X008560Y014409D01*
X008560Y014791D01*
X008291Y015060D01*
X007909Y015060D01*
X007640Y014791D01*
X007640Y014409D01*
X007739Y014310D01*
X007513Y014310D01*
X007390Y014187D01*
X003890Y010687D01*
X003890Y003541D01*
X003640Y003291D01*
X003640Y002909D01*
X003739Y002810D01*
X003489Y002810D01*
X003580Y002901D01*
X003580Y003080D01*
X003120Y003080D01*
X003120Y003120D01*
X003080Y003120D01*
X003080Y003580D01*
X002901Y003580D01*
X002620Y003299D01*
X002620Y003120D01*
X003080Y003120D01*
X003080Y003080D01*
X002620Y003080D01*
X002620Y002901D01*
X002711Y002810D01*
X002687Y002810D01*
X002560Y002937D01*
X002560Y003291D01*
X002291Y003560D01*
X001909Y003560D01*
X001640Y003291D01*
X001640Y002909D01*
X001909Y002640D01*
X002263Y002640D01*
X002513Y002390D01*
X002711Y002390D01*
X002620Y002299D01*
X002620Y002120D01*
X003080Y002120D01*
X003080Y002080D01*
X003120Y002080D01*
X003120Y002120D01*
X003580Y002120D01*
X003580Y002299D01*
X003489Y002390D01*
X003739Y002390D01*
X003640Y002291D01*
X003640Y001909D01*
X003909Y001640D01*
X004291Y001640D01*
X004560Y001909D01*
X004560Y002291D01*
X004461Y002390D01*
X004739Y002390D01*
X004640Y002291D01*
X004640Y001909D01*
X004909Y001640D01*
X005291Y001640D01*
X005560Y001909D01*
X005560Y002291D01*
X005461Y002390D01*
X005739Y002390D01*
X005640Y002291D01*
X005640Y001909D01*
X005909Y001640D01*
X006291Y001640D01*
X006560Y001909D01*
X006560Y002291D01*
X006461Y002390D01*
X006739Y002390D01*
X006640Y002291D01*
X006640Y001909D01*
X006909Y001640D01*
X007291Y001640D01*
X007560Y001909D01*
X007560Y002291D01*
X007461Y002390D01*
X010513Y002390D01*
X010640Y002263D01*
X010640Y001909D01*
X010909Y001640D01*
X011291Y001640D01*
X011560Y001909D01*
X011560Y002291D01*
X011291Y002560D01*
X010937Y002560D01*
X010810Y002687D01*
X010687Y002810D01*
X007461Y002810D01*
X007560Y002909D01*
X007560Y003291D01*
X007291Y003560D01*
X006909Y003560D01*
X006640Y003291D01*
X006640Y002909D01*
X006739Y002810D01*
X006461Y002810D01*
X006560Y002909D01*
X006560Y003291D01*
X006310Y003541D01*
X006310Y010513D01*
X007687Y011890D01*
X007739Y011890D01*
X007640Y011791D01*
X007640Y011409D01*
X007909Y011140D01*
X008291Y011140D01*
X008560Y011409D01*
X008560Y011791D01*
X008461Y011890D01*
X008687Y011890D01*
X008937Y012140D01*
X009291Y012140D01*
X009560Y012409D01*
X009560Y012791D01*
X009291Y013060D01*
X008909Y013060D01*
X008640Y012791D01*
X008640Y012437D01*
X008513Y012310D01*
X008461Y012310D01*
X008560Y012409D01*
X008560Y012791D01*
X008461Y012890D01*
X008687Y012890D01*
X008937Y013140D01*
X009291Y013140D01*
X009560Y013409D01*
X009560Y013791D01*
X009291Y014060D01*
X008909Y014060D01*
X008640Y013791D01*
X008640Y013437D01*
X008513Y013310D01*
X008461Y013310D01*
X008560Y013409D01*
X008560Y013791D01*
X008461Y013890D01*
X008687Y013890D01*
X008937Y014140D01*
X009291Y014140D01*
X009560Y014409D01*
X009560Y014791D01*
X009510Y014841D02*
X017390Y014841D01*
X017390Y014999D02*
X009352Y014999D01*
X009299Y015120D02*
X009580Y015401D01*
X009580Y015580D01*
X009120Y015580D01*
X009120Y015620D01*
X009580Y015620D01*
X009580Y015799D01*
X009363Y016016D01*
X017390Y016016D01*
X017390Y001180D01*
X001180Y001180D01*
X001180Y016016D01*
X007866Y016016D01*
X007640Y015791D01*
X007640Y015409D01*
X007909Y015140D01*
X008291Y015140D01*
X008560Y015409D01*
X008560Y015791D01*
X008334Y016016D01*
X008837Y016016D01*
X008620Y015799D01*
X008620Y015620D01*
X009080Y015620D01*
X009080Y015580D01*
X008620Y015580D01*
X008620Y015401D01*
X008901Y015120D01*
X009080Y015120D01*
X009080Y015580D01*
X009120Y015580D01*
X009120Y015120D01*
X009299Y015120D01*
X009336Y015158D02*
X017390Y015158D01*
X017390Y015316D02*
X009495Y015316D01*
X009580Y015475D02*
X017390Y015475D01*
X017390Y015633D02*
X009580Y015633D01*
X009580Y015792D02*
X017390Y015792D01*
X017390Y015950D02*
X009429Y015950D01*
X009120Y015475D02*
X009080Y015475D01*
X009080Y015316D02*
X009120Y015316D01*
X009120Y015158D02*
X009080Y015158D01*
X008864Y015158D02*
X008308Y015158D01*
X008352Y014999D02*
X008848Y014999D01*
X008690Y014841D02*
X008510Y014841D01*
X008560Y014682D02*
X008640Y014682D01*
X008640Y014524D02*
X008560Y014524D01*
X008568Y014365D02*
X008516Y014365D01*
X008845Y014048D02*
X008897Y014048D01*
X008739Y013890D02*
X008461Y013890D01*
X008560Y013731D02*
X008640Y013731D01*
X008640Y013573D02*
X008560Y013573D01*
X008560Y013414D02*
X008617Y013414D01*
X008894Y013097D02*
X017390Y013097D01*
X017390Y012939D02*
X009412Y012939D01*
X009560Y012780D02*
X017390Y012780D01*
X017390Y012622D02*
X009560Y012622D01*
X009560Y012463D02*
X017390Y012463D01*
X017390Y012305D02*
X009455Y012305D01*
X009297Y012146D02*
X017390Y012146D01*
X017390Y011988D02*
X009363Y011988D01*
X009291Y012060D02*
X008909Y012060D01*
X008640Y011791D01*
X008640Y011409D01*
X008909Y011140D01*
X009291Y011140D01*
X009560Y011409D01*
X009560Y011791D01*
X009291Y012060D01*
X009522Y011829D02*
X017390Y011829D01*
X017390Y011671D02*
X009560Y011671D01*
X009560Y011512D02*
X017390Y011512D01*
X017390Y011354D02*
X009504Y011354D01*
X009346Y011195D02*
X017390Y011195D01*
X017390Y011037D02*
X009314Y011037D01*
X009291Y011060D02*
X008909Y011060D01*
X008640Y010791D01*
X008640Y010409D01*
X008909Y010140D01*
X009291Y010140D01*
X009560Y010409D01*
X009560Y010791D01*
X009291Y011060D01*
X009473Y010878D02*
X017390Y010878D01*
X017390Y010720D02*
X009560Y010720D01*
X009560Y010561D02*
X017390Y010561D01*
X017390Y010403D02*
X009553Y010403D01*
X009395Y010244D02*
X017390Y010244D01*
X017390Y010086D02*
X006310Y010086D01*
X006310Y010244D02*
X007805Y010244D01*
X007909Y010140D02*
X007640Y010409D01*
X007640Y010791D01*
X007909Y011060D01*
X008291Y011060D01*
X008560Y010791D01*
X008560Y010409D01*
X008291Y010140D01*
X007909Y010140D01*
X007909Y010060D02*
X007640Y009791D01*
X007640Y009409D01*
X007739Y009310D01*
X007013Y009310D01*
X006890Y009187D01*
X006890Y004013D01*
X007013Y003890D01*
X007513Y003390D01*
X010739Y003390D01*
X010640Y003291D01*
X010640Y002909D01*
X010909Y002640D01*
X011291Y002640D01*
X011560Y002909D01*
X011560Y003291D01*
X011461Y003390D01*
X011711Y003390D01*
X011620Y003299D01*
X011620Y003120D01*
X012080Y003120D01*
X012080Y003080D01*
X012120Y003080D01*
X012120Y003120D01*
X012580Y003120D01*
X012580Y003299D01*
X012489Y003390D01*
X012739Y003390D01*
X012640Y003291D01*
X012640Y002909D01*
X012909Y002640D01*
X013291Y002640D01*
X013560Y002909D01*
X013560Y003291D01*
X013461Y003390D01*
X013513Y003390D01*
X013640Y003263D01*
X013640Y002909D01*
X013909Y002640D01*
X014291Y002640D01*
X014390Y002739D01*
X014390Y002461D01*
X014291Y002560D01*
X013909Y002560D01*
X013640Y002291D01*
X013640Y001909D01*
X013909Y001640D01*
X014291Y001640D01*
X014541Y001890D01*
X014659Y001890D01*
X014909Y001640D01*
X015291Y001640D01*
X015390Y001739D01*
X015390Y001513D01*
X015513Y001390D01*
X017187Y001390D01*
X017310Y001513D01*
X017310Y003687D01*
X017187Y003810D01*
X017187Y003810D01*
X015187Y005810D01*
X012187Y005810D01*
X009560Y008437D01*
X009560Y008791D01*
X009291Y009060D01*
X008909Y009060D01*
X008640Y008791D01*
X008640Y008409D01*
X008909Y008140D01*
X009263Y008140D01*
X012013Y005390D01*
X013881Y005390D01*
X013801Y005310D01*
X011687Y005310D01*
X009560Y007437D01*
X009560Y007791D01*
X009291Y008060D01*
X008909Y008060D01*
X008640Y007791D01*
X008640Y007409D01*
X008909Y007140D01*
X009263Y007140D01*
X011390Y005013D01*
X011513Y004890D01*
X013801Y004890D01*
X013881Y004810D01*
X011187Y004810D01*
X008560Y007437D01*
X008560Y007791D01*
X008291Y008060D01*
X007909Y008060D01*
X007810Y007961D01*
X007810Y008013D01*
X007937Y008140D01*
X008291Y008140D01*
X008560Y008409D01*
X008560Y008791D01*
X008461Y008890D01*
X008687Y008890D01*
X008937Y009140D01*
X009291Y009140D01*
X009560Y009409D01*
X009560Y009791D01*
X009291Y010060D01*
X008909Y010060D01*
X008640Y009791D01*
X008640Y009437D01*
X008513Y009310D01*
X008461Y009310D01*
X008560Y009409D01*
X008560Y009791D01*
X008291Y010060D01*
X007909Y010060D01*
X007776Y009927D02*
X006310Y009927D01*
X006310Y009769D02*
X007640Y009769D01*
X007640Y009610D02*
X006310Y009610D01*
X006310Y009452D02*
X007640Y009452D01*
X006996Y009293D02*
X006310Y009293D01*
X006310Y009135D02*
X006890Y009135D01*
X006890Y008976D02*
X006310Y008976D01*
X006310Y008818D02*
X006890Y008818D01*
X006890Y008659D02*
X006310Y008659D01*
X006310Y008501D02*
X006890Y008501D01*
X006890Y008342D02*
X006310Y008342D01*
X006310Y008184D02*
X006890Y008184D01*
X006890Y008025D02*
X006310Y008025D01*
X006310Y007867D02*
X006890Y007867D01*
X006890Y007708D02*
X006310Y007708D01*
X006310Y007550D02*
X006890Y007550D01*
X006890Y007391D02*
X006310Y007391D01*
X006310Y007233D02*
X006890Y007233D01*
X006890Y007074D02*
X006310Y007074D01*
X006310Y006916D02*
X006890Y006916D01*
X006890Y006757D02*
X006310Y006757D01*
X006310Y006599D02*
X006890Y006599D01*
X006890Y006440D02*
X006310Y006440D01*
X006310Y006282D02*
X006890Y006282D01*
X006890Y006123D02*
X006310Y006123D01*
X006310Y005965D02*
X006890Y005965D01*
X006890Y005806D02*
X006310Y005806D01*
X006310Y005648D02*
X006890Y005648D01*
X006890Y005489D02*
X006310Y005489D01*
X006310Y005331D02*
X006890Y005331D01*
X006890Y005172D02*
X006310Y005172D01*
X006310Y005014D02*
X006890Y005014D01*
X006890Y004855D02*
X006310Y004855D01*
X006310Y004697D02*
X006890Y004697D01*
X006890Y004538D02*
X006310Y004538D01*
X006310Y004380D02*
X006890Y004380D01*
X006890Y004221D02*
X006310Y004221D01*
X006310Y004063D02*
X006890Y004063D01*
X006999Y003904D02*
X006310Y003904D01*
X006310Y003746D02*
X007158Y003746D01*
X007316Y003587D02*
X006310Y003587D01*
X006422Y003429D02*
X006778Y003429D01*
X006640Y003270D02*
X006560Y003270D01*
X006560Y003112D02*
X006640Y003112D01*
X006640Y002953D02*
X006560Y002953D01*
X006532Y002319D02*
X006668Y002319D01*
X006640Y002161D02*
X006560Y002161D01*
X006560Y002002D02*
X006640Y002002D01*
X006706Y001844D02*
X006494Y001844D01*
X006336Y001685D02*
X006864Y001685D01*
X007336Y001685D02*
X010864Y001685D01*
X010706Y001844D02*
X007494Y001844D01*
X007560Y002002D02*
X010640Y002002D01*
X010640Y002161D02*
X007560Y002161D01*
X007532Y002319D02*
X010584Y002319D01*
X010861Y002636D02*
X011885Y002636D01*
X011901Y002620D02*
X012080Y002620D01*
X012080Y003080D01*
X011620Y003080D01*
X011620Y002901D01*
X011901Y002620D01*
X011901Y002580D02*
X011620Y002299D01*
X011620Y002120D01*
X012080Y002120D01*
X012080Y002580D01*
X011901Y002580D01*
X011799Y002478D02*
X011373Y002478D01*
X011532Y002319D02*
X011640Y002319D01*
X011620Y002161D02*
X011560Y002161D01*
X011620Y002080D02*
X011620Y001901D01*
X011901Y001620D01*
X012080Y001620D01*
X012080Y002080D01*
X012120Y002080D01*
X012120Y002120D01*
X012580Y002120D01*
X012580Y002299D01*
X012299Y002580D01*
X012120Y002580D01*
X012120Y002120D01*
X012080Y002120D01*
X012080Y002080D01*
X011620Y002080D01*
X011620Y002002D02*
X011560Y002002D01*
X011494Y001844D02*
X011678Y001844D01*
X011836Y001685D02*
X011336Y001685D01*
X012080Y001685D02*
X012120Y001685D01*
X012120Y001620D02*
X012299Y001620D01*
X012580Y001901D01*
X012580Y002080D01*
X012120Y002080D01*
X012120Y001620D01*
X012120Y001844D02*
X012080Y001844D01*
X012080Y002002D02*
X012120Y002002D01*
X012120Y002161D02*
X012080Y002161D01*
X012080Y002319D02*
X012120Y002319D01*
X012120Y002478D02*
X012080Y002478D01*
X012120Y002620D02*
X012299Y002620D01*
X012580Y002901D01*
X012580Y003080D01*
X012120Y003080D01*
X012120Y002620D01*
X012120Y002636D02*
X012080Y002636D01*
X012080Y002795D02*
X012120Y002795D01*
X012120Y002953D02*
X012080Y002953D01*
X012080Y003112D02*
X011560Y003112D01*
X011560Y003270D02*
X011620Y003270D01*
X011620Y002953D02*
X011560Y002953D01*
X011445Y002795D02*
X011727Y002795D01*
X012120Y003112D02*
X012640Y003112D01*
X012640Y003270D02*
X012580Y003270D01*
X012580Y002953D02*
X012640Y002953D01*
X012755Y002795D02*
X012473Y002795D01*
X012315Y002636D02*
X014390Y002636D01*
X014373Y002478D02*
X014390Y002478D01*
X013827Y002478D02*
X013373Y002478D01*
X013291Y002560D02*
X013560Y002291D01*
X013560Y001909D01*
X013291Y001640D01*
X012909Y001640D01*
X012640Y001909D01*
X012640Y002291D01*
X012909Y002560D01*
X013291Y002560D01*
X013532Y002319D02*
X013668Y002319D01*
X013640Y002161D02*
X013560Y002161D01*
X013560Y002002D02*
X013640Y002002D01*
X013706Y001844D02*
X013494Y001844D01*
X013336Y001685D02*
X013864Y001685D01*
X014336Y001685D02*
X014864Y001685D01*
X014706Y001844D02*
X014494Y001844D01*
X015336Y001685D02*
X015390Y001685D01*
X015390Y001527D02*
X001180Y001527D01*
X001180Y001685D02*
X001864Y001685D01*
X001909Y001640D02*
X002291Y001640D01*
X002560Y001909D01*
X002560Y002291D01*
X002291Y002560D01*
X001909Y002560D01*
X001640Y002291D01*
X001640Y001909D01*
X001909Y001640D01*
X001706Y001844D02*
X001180Y001844D01*
X001180Y002002D02*
X001640Y002002D01*
X001640Y002161D02*
X001180Y002161D01*
X001180Y002319D02*
X001668Y002319D01*
X001827Y002478D02*
X001180Y002478D01*
X001180Y002636D02*
X002267Y002636D01*
X002373Y002478D02*
X002426Y002478D01*
X002532Y002319D02*
X002640Y002319D01*
X002620Y002161D02*
X002560Y002161D01*
X002620Y002080D02*
X002620Y001901D01*
X002901Y001620D01*
X003080Y001620D01*
X003080Y002080D01*
X002620Y002080D01*
X002620Y002002D02*
X002560Y002002D01*
X002494Y001844D02*
X002678Y001844D01*
X002836Y001685D02*
X002336Y001685D01*
X003080Y001685D02*
X003120Y001685D01*
X003120Y001620D02*
X003299Y001620D01*
X003580Y001901D01*
X003580Y002080D01*
X003120Y002080D01*
X003120Y001620D01*
X003120Y001844D02*
X003080Y001844D01*
X003080Y002002D02*
X003120Y002002D01*
X003364Y001685D02*
X003864Y001685D01*
X003706Y001844D02*
X003522Y001844D01*
X003580Y002002D02*
X003640Y002002D01*
X003640Y002161D02*
X003580Y002161D01*
X003560Y002319D02*
X003668Y002319D01*
X003640Y002953D02*
X003580Y002953D01*
X003580Y003120D02*
X003580Y003299D01*
X003299Y003580D01*
X003120Y003580D01*
X003120Y003120D01*
X003580Y003120D01*
X003640Y003112D02*
X003120Y003112D01*
X003080Y003112D02*
X002560Y003112D01*
X002560Y003270D02*
X002620Y003270D01*
X002750Y003429D02*
X002422Y003429D01*
X002560Y002953D02*
X002620Y002953D01*
X003080Y003270D02*
X003120Y003270D01*
X003120Y003429D02*
X003080Y003429D01*
X003450Y003429D02*
X003778Y003429D01*
X003890Y003587D02*
X001180Y003587D01*
X001180Y003429D02*
X001778Y003429D01*
X001640Y003270D02*
X001180Y003270D01*
X001180Y003112D02*
X001640Y003112D01*
X001640Y002953D02*
X001180Y002953D01*
X001180Y002795D02*
X001755Y002795D01*
X001180Y003746D02*
X003890Y003746D01*
X003890Y003904D02*
X001180Y003904D01*
X001180Y004063D02*
X003890Y004063D01*
X003890Y004221D02*
X001180Y004221D01*
X001180Y004380D02*
X003890Y004380D01*
X003890Y004538D02*
X001180Y004538D01*
X001180Y004697D02*
X003890Y004697D01*
X003890Y004855D02*
X001180Y004855D01*
X001180Y005014D02*
X003890Y005014D01*
X003890Y005172D02*
X001180Y005172D01*
X001180Y005331D02*
X003890Y005331D01*
X003890Y005489D02*
X001180Y005489D01*
X001180Y005648D02*
X003890Y005648D01*
X003890Y005806D02*
X001180Y005806D01*
X001180Y005965D02*
X003890Y005965D01*
X003890Y006123D02*
X001180Y006123D01*
X001180Y006282D02*
X003890Y006282D01*
X003890Y006440D02*
X001180Y006440D01*
X001180Y006599D02*
X003890Y006599D01*
X003890Y006757D02*
X001180Y006757D01*
X001180Y006916D02*
X003890Y006916D01*
X003890Y007074D02*
X001180Y007074D01*
X001180Y007233D02*
X003890Y007233D01*
X003890Y007391D02*
X001180Y007391D01*
X001180Y007550D02*
X003890Y007550D01*
X003890Y007708D02*
X001180Y007708D01*
X001180Y007867D02*
X003890Y007867D01*
X003890Y008025D02*
X001180Y008025D01*
X001180Y008184D02*
X003890Y008184D01*
X003890Y008342D02*
X001180Y008342D01*
X001180Y008501D02*
X003890Y008501D01*
X003890Y008659D02*
X001180Y008659D01*
X001180Y008818D02*
X003890Y008818D01*
X003890Y008976D02*
X001180Y008976D01*
X001180Y009135D02*
X003890Y009135D01*
X003890Y009293D02*
X001180Y009293D01*
X001180Y009452D02*
X003890Y009452D01*
X003890Y009610D02*
X001180Y009610D01*
X001180Y009769D02*
X003890Y009769D01*
X003890Y009927D02*
X001180Y009927D01*
X001180Y010086D02*
X003890Y010086D01*
X003890Y010244D02*
X001180Y010244D01*
X001180Y010403D02*
X003890Y010403D01*
X003890Y010561D02*
X001180Y010561D01*
X001180Y010720D02*
X003923Y010720D01*
X004081Y010878D02*
X001180Y010878D01*
X001180Y011037D02*
X004240Y011037D01*
X004398Y011195D02*
X001180Y011195D01*
X001180Y011354D02*
X004557Y011354D01*
X004715Y011512D02*
X001180Y011512D01*
X001180Y011671D02*
X004874Y011671D01*
X005032Y011829D02*
X001180Y011829D01*
X001180Y011988D02*
X005191Y011988D01*
X005349Y012146D02*
X001180Y012146D01*
X001180Y012305D02*
X005508Y012305D01*
X005666Y012463D02*
X001180Y012463D01*
X001180Y012622D02*
X005825Y012622D01*
X005983Y012780D02*
X001180Y012780D01*
X001180Y012939D02*
X006142Y012939D01*
X006300Y013097D02*
X001180Y013097D01*
X001180Y013256D02*
X006459Y013256D01*
X006617Y013414D02*
X001180Y013414D01*
X001180Y013573D02*
X006776Y013573D01*
X006934Y013731D02*
X001180Y013731D01*
X001180Y013890D02*
X007093Y013890D01*
X007251Y014048D02*
X001180Y014048D01*
X001180Y014207D02*
X007410Y014207D01*
X007684Y014365D02*
X001180Y014365D01*
X001180Y014524D02*
X007640Y014524D01*
X007640Y014682D02*
X001180Y014682D01*
X001180Y014841D02*
X007690Y014841D01*
X007848Y014999D02*
X001180Y014999D01*
X001180Y015158D02*
X007892Y015158D01*
X007733Y015316D02*
X001180Y015316D01*
X001180Y015475D02*
X007640Y015475D01*
X007640Y015633D02*
X001180Y015633D01*
X001180Y015792D02*
X007641Y015792D01*
X007799Y015950D02*
X001180Y015950D01*
X006675Y010878D02*
X007727Y010878D01*
X007640Y010720D02*
X006517Y010720D01*
X006358Y010561D02*
X007640Y010561D01*
X007647Y010403D02*
X006310Y010403D01*
X006834Y011037D02*
X007886Y011037D01*
X007854Y011195D02*
X006992Y011195D01*
X007151Y011354D02*
X007696Y011354D01*
X007640Y011512D02*
X007309Y011512D01*
X007468Y011671D02*
X007640Y011671D01*
X007626Y011829D02*
X007678Y011829D01*
X008346Y011195D02*
X008854Y011195D01*
X008886Y011037D02*
X008314Y011037D01*
X008473Y010878D02*
X008727Y010878D01*
X008640Y010720D02*
X008560Y010720D01*
X008560Y010561D02*
X008640Y010561D01*
X008647Y010403D02*
X008553Y010403D01*
X008395Y010244D02*
X008805Y010244D01*
X008776Y009927D02*
X008424Y009927D01*
X008560Y009769D02*
X008640Y009769D01*
X008640Y009610D02*
X008560Y009610D01*
X008560Y009452D02*
X008640Y009452D01*
X008931Y009135D02*
X017390Y009135D01*
X017390Y009293D02*
X009444Y009293D01*
X009560Y009452D02*
X017390Y009452D01*
X017390Y009610D02*
X009560Y009610D01*
X009560Y009769D02*
X017390Y009769D01*
X017390Y009927D02*
X009424Y009927D01*
X009375Y008976D02*
X017390Y008976D01*
X017390Y008818D02*
X009533Y008818D01*
X009560Y008659D02*
X017390Y008659D01*
X017390Y008501D02*
X009560Y008501D01*
X009655Y008342D02*
X017390Y008342D01*
X017390Y008184D02*
X009813Y008184D01*
X009972Y008025D02*
X017390Y008025D01*
X017390Y007867D02*
X010130Y007867D01*
X010289Y007708D02*
X017390Y007708D01*
X017390Y007550D02*
X010447Y007550D01*
X010606Y007391D02*
X017390Y007391D01*
X017390Y007233D02*
X010764Y007233D01*
X010923Y007074D02*
X017390Y007074D01*
X017390Y006916D02*
X011081Y006916D01*
X011240Y006757D02*
X017390Y006757D01*
X017390Y006599D02*
X011398Y006599D01*
X011557Y006440D02*
X017390Y006440D01*
X017390Y006282D02*
X011715Y006282D01*
X011874Y006123D02*
X017390Y006123D01*
X017390Y005965D02*
X012032Y005965D01*
X011756Y005648D02*
X011349Y005648D01*
X011191Y005806D02*
X011597Y005806D01*
X011439Y005965D02*
X011032Y005965D01*
X010874Y006123D02*
X011280Y006123D01*
X011122Y006282D02*
X010715Y006282D01*
X010557Y006440D02*
X010963Y006440D01*
X010805Y006599D02*
X010398Y006599D01*
X010240Y006757D02*
X010646Y006757D01*
X010488Y006916D02*
X010081Y006916D01*
X009923Y007074D02*
X010329Y007074D01*
X010171Y007233D02*
X009764Y007233D01*
X009606Y007391D02*
X010012Y007391D01*
X009854Y007550D02*
X009560Y007550D01*
X009560Y007708D02*
X009695Y007708D01*
X009537Y007867D02*
X009484Y007867D01*
X009378Y008025D02*
X009326Y008025D01*
X008874Y008025D02*
X008326Y008025D01*
X008334Y008184D02*
X008866Y008184D01*
X008707Y008342D02*
X008493Y008342D01*
X008560Y008501D02*
X008640Y008501D01*
X008640Y008659D02*
X008560Y008659D01*
X008533Y008818D02*
X008667Y008818D01*
X008773Y008976D02*
X008825Y008976D01*
X007874Y008025D02*
X007822Y008025D01*
X008484Y007867D02*
X008716Y007867D01*
X008640Y007708D02*
X008560Y007708D01*
X008560Y007550D02*
X008640Y007550D01*
X008658Y007391D02*
X008606Y007391D01*
X008764Y007233D02*
X008817Y007233D01*
X008923Y007074D02*
X009329Y007074D01*
X009488Y006916D02*
X009081Y006916D01*
X009240Y006757D02*
X009646Y006757D01*
X009805Y006599D02*
X009398Y006599D01*
X009557Y006440D02*
X009963Y006440D01*
X010122Y006282D02*
X009715Y006282D01*
X009874Y006123D02*
X010280Y006123D01*
X010439Y005965D02*
X010032Y005965D01*
X010191Y005806D02*
X010597Y005806D01*
X010756Y005648D02*
X010349Y005648D01*
X010508Y005489D02*
X010914Y005489D01*
X011073Y005331D02*
X010666Y005331D01*
X010825Y005172D02*
X011231Y005172D01*
X011390Y005014D02*
X010983Y005014D01*
X011142Y004855D02*
X013836Y004855D01*
X013821Y005331D02*
X011666Y005331D01*
X011508Y005489D02*
X011914Y005489D01*
X010640Y003270D02*
X007560Y003270D01*
X007560Y003112D02*
X010640Y003112D01*
X010640Y002953D02*
X007560Y002953D01*
X007475Y003429D02*
X007422Y003429D01*
X005668Y002319D02*
X005532Y002319D01*
X005560Y002161D02*
X005640Y002161D01*
X005640Y002002D02*
X005560Y002002D01*
X005494Y001844D02*
X005706Y001844D01*
X005864Y001685D02*
X005336Y001685D01*
X004864Y001685D02*
X004336Y001685D01*
X004494Y001844D02*
X004706Y001844D01*
X004640Y002002D02*
X004560Y002002D01*
X004560Y002161D02*
X004640Y002161D01*
X004668Y002319D02*
X004532Y002319D01*
X003640Y003270D02*
X003580Y003270D01*
X001180Y001368D02*
X017390Y001368D01*
X017390Y001210D02*
X001180Y001210D01*
X010702Y002795D02*
X010755Y002795D01*
X012401Y002478D02*
X012827Y002478D01*
X012668Y002319D02*
X012560Y002319D01*
X012580Y002161D02*
X012640Y002161D01*
X012640Y002002D02*
X012580Y002002D01*
X012522Y001844D02*
X012706Y001844D01*
X012864Y001685D02*
X012364Y001685D01*
X013445Y002795D02*
X013755Y002795D01*
X013640Y002953D02*
X013560Y002953D01*
X013560Y003112D02*
X013640Y003112D01*
X013633Y003270D02*
X013560Y003270D01*
X015666Y005331D02*
X017390Y005331D01*
X017390Y005489D02*
X015508Y005489D01*
X015349Y005648D02*
X017390Y005648D01*
X017390Y005806D02*
X015191Y005806D01*
X015825Y005172D02*
X017390Y005172D01*
X017390Y005014D02*
X015983Y005014D01*
X016142Y004855D02*
X017390Y004855D01*
X017390Y004697D02*
X016300Y004697D01*
X016459Y004538D02*
X017390Y004538D01*
X017390Y004380D02*
X016617Y004380D01*
X016776Y004221D02*
X017390Y004221D01*
X017390Y004063D02*
X016934Y004063D01*
X017093Y003904D02*
X017390Y003904D01*
X017390Y003746D02*
X017251Y003746D01*
X017310Y003587D02*
X017390Y003587D01*
X017390Y003429D02*
X017310Y003429D01*
X017310Y003270D02*
X017390Y003270D01*
X017390Y003112D02*
X017310Y003112D01*
X017310Y002953D02*
X017390Y002953D01*
X017390Y002795D02*
X017310Y002795D01*
X017310Y002636D02*
X017390Y002636D01*
X017390Y002478D02*
X017310Y002478D01*
X017310Y002319D02*
X017390Y002319D01*
X017390Y002161D02*
X017310Y002161D01*
X017310Y002002D02*
X017390Y002002D01*
X017390Y001844D02*
X017310Y001844D01*
X017310Y001685D02*
X017390Y001685D01*
X017390Y001527D02*
X017310Y001527D01*
X008696Y011354D02*
X008504Y011354D01*
X008560Y011512D02*
X008640Y011512D01*
X008640Y011671D02*
X008560Y011671D01*
X008522Y011829D02*
X008678Y011829D01*
X008785Y011988D02*
X008837Y011988D01*
X008640Y012463D02*
X008560Y012463D01*
X008560Y012622D02*
X008640Y012622D01*
X008640Y012780D02*
X008560Y012780D01*
X008736Y012939D02*
X008788Y012939D01*
X009406Y013256D02*
X017390Y013256D01*
X017390Y013414D02*
X009560Y013414D01*
X009560Y013573D02*
X017390Y013573D01*
X017390Y013731D02*
X009560Y013731D01*
X009461Y013890D02*
X017390Y013890D01*
X017390Y014048D02*
X009303Y014048D01*
X009357Y014207D02*
X017390Y014207D01*
X017390Y014365D02*
X009516Y014365D01*
X008705Y015316D02*
X008467Y015316D01*
X008560Y015475D02*
X008620Y015475D01*
X008620Y015633D02*
X008560Y015633D01*
X008559Y015792D02*
X008620Y015792D01*
X008771Y015950D02*
X008401Y015950D01*
D14*
X014100Y005100D03*
M02*
