G75*
G70*
%OFA0B0*%
%FSLAX24Y24*%
%IPPOS*%
%LPD*%
%AMOC8*
5,1,8,0,0,1.08239X$1,22.5*
%
%ADD10C,0.0000*%
%ADD11C,0.0060*%
%ADD12C,0.0050*%
D10*
X000100Y000100D02*
X000100Y017096D01*
X018470Y017096D01*
X018470Y000100D01*
X000100Y000100D01*
D11*
X001850Y001600D02*
X001600Y001850D01*
X001600Y003350D01*
X001850Y003600D01*
X002350Y003600D01*
X002600Y003350D01*
X002600Y001850D01*
X002350Y001600D01*
X001850Y001600D01*
X002600Y001850D02*
X002850Y001600D01*
X003350Y001600D01*
X003600Y001850D01*
X003600Y003350D01*
X003350Y003600D01*
X002850Y003600D01*
X002600Y003350D01*
X003600Y003350D02*
X003850Y003600D01*
X004350Y003600D01*
X004600Y003350D01*
X004600Y001850D01*
X004350Y001600D01*
X003850Y001600D01*
X003600Y001850D01*
X004600Y001850D02*
X004850Y001600D01*
X005350Y001600D01*
X005600Y001850D01*
X005600Y003350D01*
X005350Y003600D01*
X004850Y003600D01*
X004600Y003350D01*
X005600Y003350D02*
X005850Y003600D01*
X006350Y003600D01*
X006600Y003350D01*
X006600Y001850D01*
X006350Y001600D01*
X005850Y001600D01*
X005600Y001850D01*
X006600Y001850D02*
X006850Y001600D01*
X007350Y001600D01*
X007600Y001850D01*
X007600Y003350D01*
X007350Y003600D01*
X006850Y003600D01*
X006600Y003350D01*
X006679Y004630D02*
X006999Y004630D01*
X007106Y004737D01*
X006999Y004844D01*
X006786Y004844D01*
X006679Y004950D01*
X006786Y005057D01*
X007106Y005057D01*
X007324Y005057D02*
X007537Y005057D01*
X007430Y005164D02*
X007430Y004737D01*
X007537Y004630D01*
X007753Y004737D02*
X007753Y004950D01*
X007860Y005057D01*
X008073Y005057D01*
X008180Y004950D01*
X008180Y004844D01*
X007753Y004844D01*
X007753Y004737D02*
X007860Y004630D01*
X008073Y004630D01*
X008398Y004630D02*
X008398Y005057D01*
X008398Y004844D02*
X008611Y005057D01*
X008718Y005057D01*
X008935Y005057D02*
X008935Y004737D01*
X009042Y004630D01*
X009148Y004737D01*
X009255Y004630D01*
X009362Y004737D01*
X009362Y005057D01*
X009579Y004950D02*
X009579Y004737D01*
X009686Y004630D01*
X009900Y004630D01*
X010006Y004737D01*
X010006Y004950D01*
X009900Y005057D01*
X009686Y005057D01*
X009579Y004950D01*
X010224Y004844D02*
X010438Y005057D01*
X010544Y005057D01*
X010761Y004844D02*
X011081Y005057D01*
X011298Y004950D02*
X011405Y005057D01*
X011725Y005057D01*
X011619Y004844D02*
X011405Y004844D01*
X011298Y004950D01*
X011298Y004630D02*
X011619Y004630D01*
X011725Y004737D01*
X011619Y004844D01*
X011943Y004737D02*
X011943Y004630D01*
X012050Y004630D01*
X012050Y004737D01*
X011943Y004737D01*
X012265Y004737D02*
X012372Y004630D01*
X012692Y004630D01*
X012910Y004737D02*
X013016Y004630D01*
X013230Y004630D01*
X013337Y004737D01*
X013337Y004950D01*
X013230Y005057D01*
X013016Y005057D01*
X012910Y004950D01*
X012910Y004737D01*
X012692Y005057D02*
X012372Y005057D01*
X012265Y004950D01*
X012265Y004737D01*
X013554Y004737D02*
X013554Y004630D01*
X013661Y004630D01*
X013661Y004737D01*
X013554Y004737D01*
X013876Y004630D02*
X013876Y005057D01*
X014197Y005057D01*
X014303Y004950D01*
X014303Y004630D01*
X014521Y004630D02*
X014948Y004630D01*
X014948Y005057D02*
X014521Y004630D01*
X014521Y005057D02*
X014948Y005057D01*
X014850Y003600D02*
X015350Y003600D01*
X015600Y003350D01*
X015600Y001850D01*
X015350Y001600D01*
X014850Y001600D01*
X014600Y001850D01*
X014600Y003350D01*
X014350Y003600D01*
X013850Y003600D01*
X013600Y003350D01*
X013600Y001850D01*
X013350Y001600D01*
X012850Y001600D01*
X012600Y001850D01*
X012600Y003350D01*
X012350Y003600D01*
X011850Y003600D01*
X011600Y003350D01*
X011350Y003600D01*
X010850Y003600D01*
X010600Y003350D01*
X010600Y001850D01*
X010850Y001600D01*
X011350Y001600D01*
X011600Y001850D01*
X011600Y003350D01*
X012600Y003350D02*
X012850Y003600D01*
X013350Y003600D01*
X013600Y003350D01*
X014600Y003350D02*
X014850Y003600D01*
X015600Y003350D02*
X015850Y003600D01*
X016350Y003600D01*
X016600Y003350D01*
X016600Y001850D01*
X016350Y001600D01*
X015850Y001600D01*
X015600Y001850D01*
X014600Y001850D02*
X014350Y001600D01*
X013850Y001600D01*
X013600Y001850D01*
X012600Y001850D02*
X012350Y001600D01*
X011850Y001600D01*
X011600Y001850D01*
X011081Y004630D02*
X010761Y004844D01*
X010761Y004630D02*
X010761Y005271D01*
X010653Y005630D02*
X010546Y005630D01*
X010546Y005737D01*
X010653Y005737D01*
X010653Y005630D01*
X010869Y005737D02*
X011296Y006164D01*
X011296Y005737D01*
X011189Y005630D01*
X010975Y005630D01*
X010869Y005737D01*
X010869Y006164D01*
X010975Y006271D01*
X011189Y006271D01*
X011296Y006164D01*
X010329Y005630D02*
X009902Y005630D01*
X010115Y005630D02*
X010115Y006271D01*
X009902Y006057D01*
X009684Y006057D02*
X009471Y005630D01*
X009257Y006057D01*
X008395Y005950D02*
X008395Y005630D01*
X008075Y005630D01*
X007968Y005737D01*
X008075Y005844D01*
X008395Y005844D01*
X008395Y005950D02*
X008288Y006057D01*
X008075Y006057D01*
X007751Y006057D02*
X007644Y006057D01*
X007431Y005844D01*
X007431Y006057D02*
X007431Y005630D01*
X007213Y005844D02*
X007213Y005950D01*
X007107Y006057D01*
X006893Y006057D01*
X006786Y005950D01*
X006786Y005737D01*
X006893Y005630D01*
X007107Y005630D01*
X007213Y005844D02*
X006786Y005844D01*
X006569Y005950D02*
X006569Y005630D01*
X006355Y005630D02*
X006355Y005950D01*
X006462Y006057D01*
X006569Y005950D01*
X006355Y005950D02*
X006249Y006057D01*
X006142Y006057D01*
X006142Y005630D01*
X005924Y005630D02*
X005924Y005950D01*
X005818Y006057D01*
X005604Y006057D01*
X005604Y005844D02*
X005497Y005737D01*
X005604Y005630D01*
X005924Y005630D01*
X005924Y005844D02*
X005604Y005844D01*
X005280Y005737D02*
X005173Y005630D01*
X004960Y005630D01*
X004853Y005737D01*
X004853Y006164D01*
X004960Y006271D01*
X005173Y006271D01*
X005280Y006164D01*
X004745Y005271D02*
X004745Y004630D01*
X004528Y004630D02*
X004101Y005271D01*
X003885Y005057D02*
X003885Y004950D01*
X003778Y004950D01*
X003778Y005057D01*
X003885Y005057D01*
X003561Y004950D02*
X003561Y004737D01*
X003454Y004630D01*
X003134Y004630D01*
X003134Y004416D02*
X003134Y005057D01*
X003454Y005057D01*
X003561Y004950D01*
X003778Y004737D02*
X003778Y004630D01*
X003885Y004630D01*
X003885Y004737D01*
X003778Y004737D01*
X002918Y004630D02*
X002811Y004737D01*
X002811Y005164D01*
X002704Y005057D02*
X002918Y005057D01*
X002488Y005057D02*
X002275Y005057D01*
X002381Y005164D02*
X002381Y004737D01*
X002488Y004630D01*
X002057Y004630D02*
X002057Y004950D01*
X001950Y005057D01*
X001737Y005057D01*
X001630Y004950D01*
X001630Y004630D02*
X001630Y005271D01*
X001630Y005630D02*
X001630Y006271D01*
X001950Y006271D01*
X002057Y006164D01*
X002057Y005950D01*
X001950Y005844D01*
X001630Y005844D01*
X002275Y005630D02*
X002275Y006271D01*
X002488Y006057D01*
X002702Y006271D01*
X002702Y005630D01*
X002919Y005737D02*
X003026Y005630D01*
X003239Y005630D01*
X003346Y005737D01*
X003346Y006164D01*
X003239Y006271D01*
X003026Y006271D01*
X002919Y006164D01*
X002919Y005737D01*
X003564Y005630D02*
X003884Y005630D01*
X003991Y005737D01*
X003991Y006164D01*
X003884Y006271D01*
X003564Y006271D01*
X003564Y005630D01*
X004745Y004950D02*
X004852Y005057D01*
X005066Y005057D01*
X005172Y004950D01*
X005172Y004630D01*
X005390Y004737D02*
X005497Y004844D01*
X005817Y004844D01*
X005817Y004950D02*
X005817Y004630D01*
X005497Y004630D01*
X005390Y004737D01*
X005497Y005057D02*
X005710Y005057D01*
X005817Y004950D01*
X006034Y005057D02*
X006141Y005057D01*
X006248Y004950D01*
X006355Y005057D01*
X006461Y004950D01*
X006461Y004630D01*
X006248Y004630D02*
X006248Y004950D01*
X006034Y005057D02*
X006034Y004630D01*
X007850Y007100D02*
X009350Y007100D01*
X009600Y007350D01*
X009600Y007850D01*
X009350Y008100D01*
X007850Y008100D01*
X007600Y007850D01*
X007600Y007350D01*
X007850Y007100D01*
X007850Y008100D02*
X007600Y008350D01*
X007600Y008850D01*
X007850Y009100D01*
X009350Y009100D01*
X009600Y008850D01*
X009600Y008350D01*
X009350Y008100D01*
X009350Y009100D02*
X009600Y009350D01*
X009600Y009850D01*
X009350Y010100D01*
X007850Y010100D01*
X007600Y009850D01*
X007600Y009350D01*
X007850Y009100D01*
X007850Y010100D02*
X007600Y010350D01*
X007600Y010850D01*
X007850Y011100D01*
X009350Y011100D01*
X009600Y010850D01*
X009600Y010350D01*
X009350Y010100D01*
X009350Y011100D02*
X009600Y011350D01*
X009600Y011850D01*
X009350Y012100D01*
X007850Y012100D01*
X007600Y011850D01*
X007600Y011350D01*
X007850Y011100D01*
X007850Y012100D02*
X007600Y012350D01*
X007600Y012850D01*
X007850Y013100D01*
X009350Y013100D01*
X009600Y012850D01*
X009600Y012350D01*
X009350Y012100D01*
X009350Y013100D02*
X009600Y013350D01*
X009600Y013850D01*
X009350Y014100D01*
X007850Y014100D01*
X007600Y013850D01*
X007600Y013350D01*
X007850Y013100D01*
X007850Y014100D02*
X007600Y014350D01*
X007600Y014850D01*
X007850Y015100D01*
X009350Y015100D01*
X009600Y014850D01*
X009600Y014350D01*
X009350Y014100D01*
X009350Y015100D02*
X009600Y015350D01*
X009600Y015850D01*
X009350Y016100D01*
X007850Y016100D01*
X007600Y015850D01*
X007600Y015350D01*
X007850Y015100D01*
X010224Y005057D02*
X010224Y004630D01*
D12*
X007315Y001325D02*
X007315Y000875D01*
X007165Y000875D02*
X007465Y000875D01*
X007165Y001175D02*
X007315Y001325D01*
X007004Y001250D02*
X007004Y000950D01*
X006929Y000875D01*
X006704Y000875D01*
X006704Y001325D01*
X006929Y001325D01*
X007004Y001250D01*
X006544Y001250D02*
X006544Y000950D01*
X006469Y000875D01*
X006319Y000875D01*
X006244Y000950D01*
X006244Y001250D01*
X006319Y001325D01*
X006469Y001325D01*
X006544Y001250D01*
X006084Y001325D02*
X006084Y000875D01*
X005783Y000875D02*
X005783Y001325D01*
X005934Y001175D01*
X006084Y001325D01*
X005623Y001250D02*
X005623Y001100D01*
X005548Y001025D01*
X005323Y001025D01*
X005323Y000875D02*
X005323Y001325D01*
X005548Y001325D01*
X005623Y001250D01*
X014323Y001325D02*
X014323Y000875D01*
X014323Y001025D02*
X014548Y001025D01*
X014623Y001100D01*
X014623Y001250D01*
X014548Y001325D01*
X014323Y001325D01*
X014783Y001325D02*
X014783Y000875D01*
X014934Y001175D02*
X015084Y001325D01*
X015084Y000875D01*
X015244Y000950D02*
X015319Y000875D01*
X015469Y000875D01*
X015544Y000950D01*
X015544Y001250D01*
X015469Y001325D01*
X015319Y001325D01*
X015244Y001250D01*
X015244Y000950D01*
X014934Y001175D02*
X014783Y001325D01*
X015704Y001325D02*
X015704Y000875D01*
X015929Y000875D01*
X016004Y000950D01*
X016004Y001250D01*
X015929Y001325D01*
X015704Y001325D01*
X016165Y001250D02*
X016165Y000950D01*
X016465Y001250D01*
X016465Y000950D01*
X016390Y000875D01*
X016240Y000875D01*
X016165Y000950D01*
X016165Y001250D02*
X016240Y001325D01*
X016390Y001325D01*
X016465Y001250D01*
X010250Y013363D02*
X009950Y013363D01*
X009875Y013438D01*
X009875Y013588D01*
X009950Y013663D01*
X010025Y013823D02*
X009875Y013973D01*
X010025Y014123D01*
X010325Y014123D01*
X010325Y014283D02*
X009875Y014283D01*
X010025Y014434D01*
X009875Y014584D01*
X010325Y014584D01*
X010325Y014744D02*
X010325Y015044D01*
X010325Y015204D02*
X009875Y015204D01*
X009875Y015429D01*
X009950Y015504D01*
X010100Y015504D01*
X010175Y015429D01*
X010175Y015204D01*
X010175Y015354D02*
X010325Y015504D01*
X010325Y015665D02*
X010025Y015665D01*
X009875Y015815D01*
X010025Y015965D01*
X010325Y015965D01*
X010100Y015965D02*
X010100Y015665D01*
X009875Y015044D02*
X009875Y014744D01*
X010325Y014744D01*
X010100Y014744D02*
X010100Y014894D01*
X010100Y014123D02*
X010100Y013823D01*
X010025Y013823D02*
X010325Y013823D01*
X010250Y013663D02*
X010325Y013588D01*
X010325Y013438D01*
X010250Y013363D01*
M02*
